ISO-10303-21;
HEADER;
/* Generated by software containing ST-Developer
 * from STEP Tools, Inc. (www.steptools.com) 
 */
/* OPTION: using custom renumber hook */

FILE_DESCRIPTION(
/* description */ ('STEP AP242 Edition 2',
'CAx-IF Rec.Pracs.---Representation and Presentation of Product Manufa
cturing Information (PMI)---4.0---2014-10-13',
'CAx-IF Rec.Pracs.---3D Tessellated Geometry---0.4---2014-09-14','2;1',
'CAx-IF Rec.Pracs.---User Defined Attributes---1.5---2016-08-15'),
/* implementation_level */ '2;1');

FILE_NAME(
/* name */ 'Polairs Rocket (Up) - Landing Strut 1',
/* time_stamp */ '2026-08-25T14:55:48Z',
/* author */ (''),
/* organization */ (''),
/* preprocessor_version */ 'ST-DEVELOPER v20',
/* originating_system */ 'ONSHAPE BY PTC INC, 1.219',
/* authorisation */ '  ');

FILE_SCHEMA (('AP242_MANAGED_MODEL_BASED_3D_ENGINEERING_MIM_LF { 1 0 10303 442 3 1 4 }'));
ENDSEC;

DATA;
#10=SHAPE_REPRESENTATION_RELATIONSHIP('','',#385,#11);
#11=ADVANCED_BREP_SHAPE_REPRESENTATION('',(#383),#609);
#12=CYLINDRICAL_SURFACE('',#398,0.00270823671717102);
#13=CYLINDRICAL_SURFACE('',#399,0.001625);
#14=LINE('',#508,#60);
#15=LINE('',#511,#61);
#16=LINE('',#515,#62);
#17=LINE('',#519,#63);
#18=LINE('',#522,#64);
#19=LINE('',#524,#65);
#20=LINE('',#528,#66);
#21=LINE('',#531,#67);
#22=LINE('',#533,#68);
#23=LINE('',#535,#69);
#24=LINE('',#537,#70);
#25=LINE('',#540,#71);
#26=LINE('',#542,#72);
#27=LINE('',#544,#73);
#28=LINE('',#546,#74);
#29=LINE('',#548,#75);
#30=LINE('',#550,#76);
#31=LINE('',#552,#77);
#32=LINE('',#554,#78);
#33=LINE('',#555,#79);
#34=LINE('',#556,#80);
#35=LINE('',#558,#81);
#36=LINE('',#560,#82);
#37=LINE('',#562,#83);
#38=LINE('',#564,#84);
#39=LINE('',#565,#85);
#40=LINE('',#567,#86);
#41=LINE('',#569,#87);
#42=LINE('',#571,#88);
#43=LINE('',#573,#89);
#44=LINE('',#575,#90);
#45=LINE('',#576,#91);
#46=LINE('',#577,#92);
#47=LINE('',#579,#93);
#48=LINE('',#581,#94);
#49=LINE('',#583,#95);
#50=LINE('',#585,#96);
#51=LINE('',#586,#97);
#52=LINE('',#591,#98);
#53=LINE('',#592,#99);
#54=LINE('',#594,#100);
#55=LINE('',#596,#101);
#56=LINE('',#600,#102);
#57=LINE('',#602,#103);
#58=LINE('',#604,#104);
#59=LINE('',#606,#105);
#60=VECTOR('',#416,1.);
#61=VECTOR('',#417,1.);
#62=VECTOR('',#420,1.);
#63=VECTOR('',#425,1.);
#64=VECTOR('',#426,1.);
#65=VECTOR('',#427,1.);
#66=VECTOR('',#432,1.);
#67=VECTOR('',#433,1.);
#68=VECTOR('',#434,1.);
#69=VECTOR('',#435,1.);
#70=VECTOR('',#438,1.);
#71=VECTOR('',#439,1.);
#72=VECTOR('',#440,1.);
#73=VECTOR('',#441,1.);
#74=VECTOR('',#444,1.);
#75=VECTOR('',#445,1.);
#76=VECTOR('',#446,1.);
#77=VECTOR('',#447,1.);
#78=VECTOR('',#448,1.);
#79=VECTOR('',#449,1.);
#80=VECTOR('',#450,1.);
#81=VECTOR('',#451,1.);
#82=VECTOR('',#452,1.);
#83=VECTOR('',#453,1.);
#84=VECTOR('',#454,1.);
#85=VECTOR('',#455,1.);
#86=VECTOR('',#458,1.);
#87=VECTOR('',#459,1.);
#88=VECTOR('',#460,1.);
#89=VECTOR('',#461,1.);
#90=VECTOR('',#462,1.);
#91=VECTOR('',#463,1.);
#92=VECTOR('',#464,1.);
#93=VECTOR('',#465,1.);
#94=VECTOR('',#466,1.);
#95=VECTOR('',#467,1.);
#96=VECTOR('',#468,1.);
#97=VECTOR('',#469,1.);
#98=VECTOR('',#478,1.);
#99=VECTOR('',#479,1.);
#100=VECTOR('',#482,1.);
#101=VECTOR('',#485,1.);
#102=VECTOR('',#492,1.);
#103=VECTOR('',#495,1.);
#104=VECTOR('',#498,1.);
#105=VECTOR('',#501,1.);
#106=ORIENTED_EDGE('',*,*,#206,.F.);
#107=ORIENTED_EDGE('',*,*,#207,.T.);
#108=ORIENTED_EDGE('',*,*,#208,.T.);
#109=ORIENTED_EDGE('',*,*,#209,.F.);
#110=ORIENTED_EDGE('',*,*,#210,.F.);
#111=ORIENTED_EDGE('',*,*,#211,.F.);
#112=ORIENTED_EDGE('',*,*,#212,.F.);
#113=ORIENTED_EDGE('',*,*,#213,.F.);
#114=ORIENTED_EDGE('',*,*,#214,.T.);
#115=ORIENTED_EDGE('',*,*,#215,.T.);
#116=ORIENTED_EDGE('',*,*,#216,.T.);
#117=ORIENTED_EDGE('',*,*,#217,.F.);
#118=ORIENTED_EDGE('',*,*,#218,.F.);
#119=ORIENTED_EDGE('',*,*,#219,.F.);
#120=ORIENTED_EDGE('',*,*,#220,.T.);
#121=ORIENTED_EDGE('',*,*,#221,.F.);
#122=ORIENTED_EDGE('',*,*,#222,.T.);
#123=ORIENTED_EDGE('',*,*,#223,.T.);
#124=ORIENTED_EDGE('',*,*,#221,.T.);
#125=ORIENTED_EDGE('',*,*,#224,.F.);
#126=ORIENTED_EDGE('',*,*,#225,.F.);
#127=ORIENTED_EDGE('',*,*,#226,.F.);
#128=ORIENTED_EDGE('',*,*,#227,.T.);
#129=ORIENTED_EDGE('',*,*,#228,.T.);
#130=ORIENTED_EDGE('',*,*,#212,.T.);
#131=ORIENTED_EDGE('',*,*,#229,.F.);
#132=ORIENTED_EDGE('',*,*,#208,.F.);
#133=ORIENTED_EDGE('',*,*,#230,.F.);
#134=ORIENTED_EDGE('',*,*,#231,.F.);
#135=ORIENTED_EDGE('',*,*,#232,.T.);
#136=ORIENTED_EDGE('',*,*,#233,.T.);
#137=ORIENTED_EDGE('',*,*,#234,.T.);
#138=ORIENTED_EDGE('',*,*,#216,.F.);
#139=ORIENTED_EDGE('',*,*,#235,.T.);
#140=ORIENTED_EDGE('',*,*,#218,.T.);
#141=ORIENTED_EDGE('',*,*,#236,.F.);
#142=ORIENTED_EDGE('',*,*,#237,.F.);
#143=ORIENTED_EDGE('',*,*,#238,.F.);
#144=ORIENTED_EDGE('',*,*,#239,.T.);
#145=ORIENTED_EDGE('',*,*,#240,.T.);
#146=ORIENTED_EDGE('',*,*,#210,.T.);
#147=ORIENTED_EDGE('',*,*,#241,.T.);
#148=ORIENTED_EDGE('',*,*,#214,.F.);
#149=ORIENTED_EDGE('',*,*,#242,.F.);
#150=ORIENTED_EDGE('',*,*,#243,.F.);
#151=ORIENTED_EDGE('',*,*,#244,.T.);
#152=ORIENTED_EDGE('',*,*,#245,.T.);
#153=ORIENTED_EDGE('',*,*,#246,.T.);
#154=ORIENTED_EDGE('',*,*,#223,.F.);
#155=ORIENTED_EDGE('',*,*,#247,.F.);
#156=ORIENTED_EDGE('',*,*,#235,.F.);
#157=ORIENTED_EDGE('',*,*,#219,.T.);
#158=ORIENTED_EDGE('',*,*,#247,.T.);
#159=ORIENTED_EDGE('',*,*,#222,.F.);
#160=ORIENTED_EDGE('',*,*,#209,.T.);
#161=ORIENTED_EDGE('',*,*,#229,.T.);
#162=ORIENTED_EDGE('',*,*,#215,.F.);
#163=ORIENTED_EDGE('',*,*,#241,.F.);
#164=ORIENTED_EDGE('',*,*,#211,.T.);
#165=ORIENTED_EDGE('',*,*,#206,.T.);
#166=ORIENTED_EDGE('',*,*,#226,.T.);
#167=ORIENTED_EDGE('',*,*,#248,.F.);
#168=ORIENTED_EDGE('',*,*,#244,.F.);
#169=ORIENTED_EDGE('',*,*,#249,.T.);
#170=ORIENTED_EDGE('',*,*,#227,.F.);
#171=ORIENTED_EDGE('',*,*,#249,.F.);
#172=ORIENTED_EDGE('',*,*,#243,.T.);
#173=ORIENTED_EDGE('',*,*,#250,.T.);
#174=ORIENTED_EDGE('',*,*,#225,.T.);
#175=ORIENTED_EDGE('',*,*,#251,.F.);
#176=ORIENTED_EDGE('',*,*,#245,.F.);
#177=ORIENTED_EDGE('',*,*,#248,.T.);
#178=ORIENTED_EDGE('',*,*,#228,.F.);
#179=ORIENTED_EDGE('',*,*,#250,.F.);
#180=ORIENTED_EDGE('',*,*,#242,.T.);
#181=ORIENTED_EDGE('',*,*,#213,.T.);
#182=ORIENTED_EDGE('',*,*,#224,.T.);
#183=ORIENTED_EDGE('',*,*,#220,.F.);
#184=ORIENTED_EDGE('',*,*,#246,.F.);
#185=ORIENTED_EDGE('',*,*,#251,.T.);
#186=ORIENTED_EDGE('',*,*,#230,.T.);
#187=ORIENTED_EDGE('',*,*,#207,.F.);
#188=ORIENTED_EDGE('',*,*,#240,.F.);
#189=ORIENTED_EDGE('',*,*,#252,.T.);
#190=ORIENTED_EDGE('',*,*,#231,.T.);
#191=ORIENTED_EDGE('',*,*,#252,.F.);
#192=ORIENTED_EDGE('',*,*,#239,.F.);
#193=ORIENTED_EDGE('',*,*,#253,.T.);
#194=ORIENTED_EDGE('',*,*,#232,.F.);
#195=ORIENTED_EDGE('',*,*,#253,.F.);
#196=ORIENTED_EDGE('',*,*,#238,.T.);
#197=ORIENTED_EDGE('',*,*,#254,.T.);
#198=ORIENTED_EDGE('',*,*,#233,.F.);
#199=ORIENTED_EDGE('',*,*,#254,.F.);
#200=ORIENTED_EDGE('',*,*,#237,.T.);
#201=ORIENTED_EDGE('',*,*,#255,.T.);
#202=ORIENTED_EDGE('',*,*,#234,.F.);
#203=ORIENTED_EDGE('',*,*,#255,.F.);
#204=ORIENTED_EDGE('',*,*,#236,.T.);
#205=ORIENTED_EDGE('',*,*,#217,.T.);
#206=EDGE_CURVE('',#256,#256,#290,.T.);
#207=EDGE_CURVE('',#257,#258,#14,.T.);
#208=EDGE_CURVE('',#258,#259,#15,.T.);
#209=EDGE_CURVE('',#260,#259,#291,.T.);
#210=EDGE_CURVE('',#257,#260,#16,.T.);
#211=EDGE_CURVE('',#261,#261,#292,.T.);
#212=EDGE_CURVE('',#262,#263,#17,.T.);
#213=EDGE_CURVE('',#264,#262,#18,.T.);
#214=EDGE_CURVE('',#264,#265,#19,.T.);
#215=EDGE_CURVE('',#265,#263,#293,.T.);
#216=EDGE_CURVE('',#266,#267,#20,.T.);
#217=EDGE_CURVE('',#268,#267,#21,.T.);
#218=EDGE_CURVE('',#269,#268,#22,.T.);
#219=EDGE_CURVE('',#266,#269,#23,.T.);
#220=EDGE_CURVE('',#270,#271,#24,.T.);
#221=EDGE_CURVE('',#272,#271,#25,.T.);
#222=EDGE_CURVE('',#272,#273,#26,.T.);
#223=EDGE_CURVE('',#273,#270,#27,.T.);
#224=EDGE_CURVE('',#274,#271,#28,.T.);
#225=EDGE_CURVE('',#275,#274,#29,.T.);
#226=EDGE_CURVE('',#276,#275,#30,.T.);
#227=EDGE_CURVE('',#276,#277,#31,.T.);
#228=EDGE_CURVE('',#277,#262,#32,.T.);
#229=EDGE_CURVE('',#259,#263,#33,.T.);
#230=EDGE_CURVE('',#278,#258,#34,.T.);
#231=EDGE_CURVE('',#279,#278,#35,.T.);
#232=EDGE_CURVE('',#279,#280,#36,.T.);
#233=EDGE_CURVE('',#280,#281,#37,.T.);
#234=EDGE_CURVE('',#281,#267,#38,.T.);
#235=EDGE_CURVE('',#266,#272,#39,.T.);
#236=EDGE_CURVE('',#282,#268,#40,.T.);
#237=EDGE_CURVE('',#283,#282,#41,.T.);
#238=EDGE_CURVE('',#284,#283,#42,.T.);
#239=EDGE_CURVE('',#284,#285,#43,.T.);
#240=EDGE_CURVE('',#285,#257,#44,.T.);
#241=EDGE_CURVE('',#260,#265,#45,.T.);
#242=EDGE_CURVE('',#286,#264,#46,.T.);
#243=EDGE_CURVE('',#287,#286,#47,.T.);
#244=EDGE_CURVE('',#287,#288,#48,.T.);
#245=EDGE_CURVE('',#288,#289,#49,.T.);
#246=EDGE_CURVE('',#289,#270,#50,.T.);
#247=EDGE_CURVE('',#269,#273,#51,.T.);
#248=EDGE_CURVE('',#288,#275,#52,.T.);
#249=EDGE_CURVE('',#287,#276,#53,.T.);
#250=EDGE_CURVE('',#286,#277,#54,.T.);
#251=EDGE_CURVE('',#289,#274,#55,.T.);
#252=EDGE_CURVE('',#285,#278,#56,.T.);
#253=EDGE_CURVE('',#284,#279,#57,.T.);
#254=EDGE_CURVE('',#283,#280,#58,.T.);
#255=EDGE_CURVE('',#282,#281,#59,.T.);
#256=VERTEX_POINT('',#507);
#257=VERTEX_POINT('',#509);
#258=VERTEX_POINT('',#510);
#259=VERTEX_POINT('',#512);
#260=VERTEX_POINT('',#514);
#261=VERTEX_POINT('',#518);
#262=VERTEX_POINT('',#520);
#263=VERTEX_POINT('',#521);
#264=VERTEX_POINT('',#523);
#265=VERTEX_POINT('',#525);
#266=VERTEX_POINT('',#529);
#267=VERTEX_POINT('',#530);
#268=VERTEX_POINT('',#532);
#269=VERTEX_POINT('',#534);
#270=VERTEX_POINT('',#538);
#271=VERTEX_POINT('',#539);
#272=VERTEX_POINT('',#541);
#273=VERTEX_POINT('',#543);
#274=VERTEX_POINT('',#547);
#275=VERTEX_POINT('',#549);
#276=VERTEX_POINT('',#551);
#277=VERTEX_POINT('',#553);
#278=VERTEX_POINT('',#557);
#279=VERTEX_POINT('',#559);
#280=VERTEX_POINT('',#561);
#281=VERTEX_POINT('',#563);
#282=VERTEX_POINT('',#568);
#283=VERTEX_POINT('',#570);
#284=VERTEX_POINT('',#572);
#285=VERTEX_POINT('',#574);
#286=VERTEX_POINT('',#578);
#287=VERTEX_POINT('',#580);
#288=VERTEX_POINT('',#582);
#289=VERTEX_POINT('',#584);
#290=CIRCLE('',#388,0.001625);
#291=CIRCLE('',#389,0.00270823671717102);
#292=CIRCLE('',#391,0.001625);
#293=CIRCLE('',#392,0.00270823671717102);
#294=EDGE_LOOP('',(#106));
#295=EDGE_LOOP('',(#107,#108,#109,#110));
#296=EDGE_LOOP('',(#111));
#297=EDGE_LOOP('',(#112,#113,#114,#115));
#298=EDGE_LOOP('',(#116,#117,#118,#119));
#299=EDGE_LOOP('',(#120,#121,#122,#123));
#300=EDGE_LOOP('',(#124,#125,#126,#127,#128,#129,#130,#131,#132,#133,#134,
#135,#136,#137,#138,#139));
#301=EDGE_LOOP('',(#140,#141,#142,#143,#144,#145,#146,#147,#148,#149,#150,
#151,#152,#153,#154,#155));
#302=EDGE_LOOP('',(#156,#157,#158,#159));
#303=EDGE_LOOP('',(#160,#161,#162,#163));
#304=EDGE_LOOP('',(#164));
#305=EDGE_LOOP('',(#165));
#306=EDGE_LOOP('',(#166,#167,#168,#169));
#307=EDGE_LOOP('',(#170,#171,#172,#173));
#308=EDGE_LOOP('',(#174,#175,#176,#177));
#309=EDGE_LOOP('',(#178,#179,#180,#181));
#310=EDGE_LOOP('',(#182,#183,#184,#185));
#311=EDGE_LOOP('',(#186,#187,#188,#189));
#312=EDGE_LOOP('',(#190,#191,#192,#193));
#313=EDGE_LOOP('',(#194,#195,#196,#197));
#314=EDGE_LOOP('',(#198,#199,#200,#201));
#315=EDGE_LOOP('',(#202,#203,#204,#205));
#316=FACE_BOUND('',#294,.T.);
#317=FACE_BOUND('',#295,.T.);
#318=FACE_BOUND('',#296,.T.);
#319=FACE_BOUND('',#297,.T.);
#320=FACE_BOUND('',#298,.T.);
#321=FACE_BOUND('',#299,.T.);
#322=FACE_BOUND('',#300,.T.);
#323=FACE_BOUND('',#301,.T.);
#324=FACE_BOUND('',#302,.T.);
#325=FACE_BOUND('',#303,.T.);
#326=FACE_BOUND('',#304,.T.);
#327=FACE_BOUND('',#305,.T.);
#328=FACE_BOUND('',#306,.T.);
#329=FACE_BOUND('',#307,.T.);
#330=FACE_BOUND('',#308,.T.);
#331=FACE_BOUND('',#309,.T.);
#332=FACE_BOUND('',#310,.T.);
#333=FACE_BOUND('',#311,.T.);
#334=FACE_BOUND('',#312,.T.);
#335=FACE_BOUND('',#313,.T.);
#336=FACE_BOUND('',#314,.T.);
#337=FACE_BOUND('',#315,.T.);
#338=PLANE('',#387);
#339=PLANE('',#390);
#340=PLANE('',#393);
#341=PLANE('',#394);
#342=PLANE('',#395);
#343=PLANE('',#396);
#344=PLANE('',#397);
#345=PLANE('',#400);
#346=PLANE('',#401);
#347=PLANE('',#402);
#348=PLANE('',#403);
#349=PLANE('',#404);
#350=PLANE('',#405);
#351=PLANE('',#406);
#352=PLANE('',#407);
#353=PLANE('',#408);
#354=PLANE('',#409);
#355=ADVANCED_FACE('',(#316,#317),#338,.F.);
#356=ADVANCED_FACE('',(#318,#319),#339,.T.);
#357=ADVANCED_FACE('',(#320),#340,.F.);
#358=ADVANCED_FACE('',(#321),#341,.T.);
#359=ADVANCED_FACE('',(#322),#342,.T.);
#360=ADVANCED_FACE('',(#323),#343,.F.);
#361=ADVANCED_FACE('',(#324),#344,.T.);
#362=ADVANCED_FACE('',(#325),#12,.T.);
#363=ADVANCED_FACE('',(#326,#327),#13,.F.);
#364=ADVANCED_FACE('',(#328),#345,.F.);
#365=ADVANCED_FACE('',(#329),#346,.T.);
#366=ADVANCED_FACE('',(#330),#347,.F.);
#367=ADVANCED_FACE('',(#331),#348,.T.);
#368=ADVANCED_FACE('',(#332),#349,.F.);
#369=ADVANCED_FACE('',(#333),#350,.F.);
#370=ADVANCED_FACE('',(#334),#351,.F.);
#371=ADVANCED_FACE('',(#335),#352,.T.);
#372=ADVANCED_FACE('',(#336),#353,.T.);
#373=ADVANCED_FACE('',(#337),#354,.T.);
#374=CLOSED_SHELL('',(#355,#356,#357,#358,#359,#360,#361,#362,#363,#364,
#365,#366,#367,#368,#369,#370,#371,#372,#373));
#375=STYLED_ITEM('',(#376),#383);
#376=PRESENTATION_STYLE_ASSIGNMENT((#377));
#377=SURFACE_STYLE_USAGE(.BOTH.,#378);
#378=SURFACE_SIDE_STYLE('',(#379));
#379=SURFACE_STYLE_FILL_AREA(#380);
#380=FILL_AREA_STYLE('',(#381));
#381=FILL_AREA_STYLE_COLOUR('',#382);
#382=COLOUR_RGB('',0.768627450980392,0.886274509803922,0.952941176470588);
#383=MANIFOLD_SOLID_BREP('Landing Strut 1',#374);
#384=SHAPE_DEFINITION_REPRESENTATION(#614,#385);
#385=SHAPE_REPRESENTATION('Landing Strut 1',(#386),#609);
#386=AXIS2_PLACEMENT_3D('',#504,#410,#411);
#387=AXIS2_PLACEMENT_3D('',#505,#412,#413);
#388=AXIS2_PLACEMENT_3D('',#506,#414,#415);
#389=AXIS2_PLACEMENT_3D('',#513,#418,#419);
#390=AXIS2_PLACEMENT_3D('',#516,#421,#422);
#391=AXIS2_PLACEMENT_3D('',#517,#423,#424);
#392=AXIS2_PLACEMENT_3D('',#526,#428,#429);
#393=AXIS2_PLACEMENT_3D('',#527,#430,#431);
#394=AXIS2_PLACEMENT_3D('',#536,#436,#437);
#395=AXIS2_PLACEMENT_3D('',#545,#442,#443);
#396=AXIS2_PLACEMENT_3D('',#566,#456,#457);
#397=AXIS2_PLACEMENT_3D('',#587,#470,#471);
#398=AXIS2_PLACEMENT_3D('',#588,#472,#473);
#399=AXIS2_PLACEMENT_3D('',#589,#474,#475);
#400=AXIS2_PLACEMENT_3D('',#590,#476,#477);
#401=AXIS2_PLACEMENT_3D('',#593,#480,#481);
#402=AXIS2_PLACEMENT_3D('',#595,#483,#484);
#403=AXIS2_PLACEMENT_3D('',#597,#486,#487);
#404=AXIS2_PLACEMENT_3D('',#598,#488,#489);
#405=AXIS2_PLACEMENT_3D('',#599,#490,#491);
#406=AXIS2_PLACEMENT_3D('',#601,#493,#494);
#407=AXIS2_PLACEMENT_3D('',#603,#496,#497);
#408=AXIS2_PLACEMENT_3D('',#605,#499,#500);
#409=AXIS2_PLACEMENT_3D('',#607,#502,#503);
#410=DIRECTION('',(0.,0.,1.));
#411=DIRECTION('',(1.,0.,0.));
#412=DIRECTION('',(-9.83397723726397E-17,1.,1.48991629719714E-18));
#413=DIRECTION('',(-0.999847695156391,-9.82987921242117E-17,-0.0174524064372843));
#414=DIRECTION('',(9.83397723726397E-17,-1.,-1.48991629719711E-18));
#415=DIRECTION('',(0.866025403784439,8.59096992256837E-17,-0.5));
#416=DIRECTION('',(-0.999847695156391,-1.8366904192622E-16,-0.0174524064372842));
#417=DIRECTION('',(0.0174524064372843,3.20595505212583E-18,-0.999847695156391));
#418=DIRECTION('',(-9.83397723726397E-17,1.,1.48991629719714E-18));
#419=DIRECTION('',(-0.866025403784439,-8.59096992256837E-17,0.5));
#420=DIRECTION('',(0.0174524064372843,3.20595505212583E-18,-0.999847695156391));
#421=DIRECTION('',(-9.83397723726397E-17,1.,1.48991629719714E-18));
#422=DIRECTION('',(-0.999847695156391,-9.82987921242117E-17,-0.0174524064372843));
#423=DIRECTION('',(-9.83397723726397E-17,1.,1.48991629719714E-18));
#424=DIRECTION('',(-0.866025403784439,-8.59096992256837E-17,0.5));
#425=DIRECTION('',(0.0174524064372843,3.20595505212583E-18,-0.999847695156391));
#426=DIRECTION('',(-0.999847695156391,-1.8366904192622E-16,-0.0174524064372842));
#427=DIRECTION('',(0.0174524064372843,3.20595505212583E-18,-0.999847695156391));
#428=DIRECTION('',(-9.83397723726397E-17,1.,1.48991629719711E-18));
#429=DIRECTION('',(-0.866025403784439,-8.59096992256837E-17,0.5));
#430=DIRECTION('',(-9.83397723726397E-17,1.,1.48991629719714E-18));
#431=DIRECTION('',(-0.999847695156391,-9.82987921242117E-17,-0.0174524064372843));
#432=DIRECTION('',(0.0174524064372843,3.20595505212583E-18,-0.999847695156391));
#433=DIRECTION('',(-0.999847695156391,-1.8366904192622E-16,-0.0174524064372842));
#434=DIRECTION('',(0.0174524064372843,3.20595505212583E-18,-0.999847695156391));
#435=DIRECTION('',(0.999847695156391,9.82987921242117E-17,0.0174524064372843));
#436=DIRECTION('',(-9.83397723726397E-17,1.,1.48991629719714E-18));
#437=DIRECTION('',(-0.999847695156391,-9.82987921242117E-17,-0.0174524064372843));
#438=DIRECTION('',(-0.999847695156391,-1.8366904192622E-16,-0.0174524064372842));
#439=DIRECTION('',(0.0174524064372843,3.20595505212583E-18,-0.999847695156391));
#440=DIRECTION('',(0.999847695156391,9.82987921242117E-17,0.0174524064372843));
#441=DIRECTION('',(0.0174524064372843,3.20595505212583E-18,-0.999847695156391));
#442=DIRECTION('',(-0.999847695156391,-1.8366904192622E-16,-0.0174524064372843));
#443=DIRECTION('',(1.83697019872103E-16,-1.,0.));
#444=DIRECTION('',(0.0110511281775042,-0.773975821678966,-0.633118709265786));
#445=DIRECTION('',(0.0174524064372843,-1.54253123618667E-16,-0.999847695156391));
#446=DIRECTION('',(1.809489800339E-16,-1.,1.57435096890441E-16));
#447=DIRECTION('',(0.0174524064372843,-1.54253123618667E-16,-0.999847695156391));
#448=DIRECTION('',(0.011051114585242,-0.773976458855657,-0.633117930565611));
#449=DIRECTION('',(-9.83397723726397E-17,1.,1.48991629719714E-18));
#450=DIRECTION('',(0.0110511022425358,0.773977037454647,-0.633117223452461));
#451=DIRECTION('',(0.0174524064372843,-1.54253123618667E-16,-0.999847695156391));
#452=DIRECTION('',(-1.809489800339E-16,1.,-1.57435096890441E-16));
#453=DIRECTION('',(0.0174524064372843,-4.957341228267E-16,-0.999847695156391));
#454=DIRECTION('',(0.0110511022425357,0.773977037454648,-0.63311722345246));
#455=DIRECTION('',(-1.83697019872103E-16,1.,0.));
#456=DIRECTION('',(-0.999847695156391,-1.8366904192622E-16,-0.0174524064372843));
#457=DIRECTION('',(1.83697019872103E-16,-1.,0.));
#458=DIRECTION('',(0.0110511022425357,0.773977037454648,-0.63311722345246));
#459=DIRECTION('',(0.0174524064372843,-4.957341228267E-16,-0.999847695156391));
#460=DIRECTION('',(-1.809489800339E-16,1.,-1.57435096890441E-16));
#461=DIRECTION('',(0.0174524064372843,-1.54253123618667E-16,-0.999847695156391));
#462=DIRECTION('',(0.0110511022425358,0.773977037454647,-0.633117223452461));
#463=DIRECTION('',(-9.83397723726397E-17,1.,1.48991629719714E-18));
#464=DIRECTION('',(0.011051114585242,-0.773976458855657,-0.633117930565611));
#465=DIRECTION('',(0.0174524064372843,-1.54253123618667E-16,-0.999847695156391));
#466=DIRECTION('',(1.809489800339E-16,-1.,1.57435096890441E-16));
#467=DIRECTION('',(0.0174524064372843,-1.54253123618667E-16,-0.999847695156391));
#468=DIRECTION('',(0.0110511281775042,-0.773975821678966,-0.633118709265786));
#469=DIRECTION('',(-1.83697019872103E-16,1.,0.));
#470=DIRECTION('',(-0.0174524064372843,-3.20595505212584E-18,0.999847695156391));
#471=DIRECTION('',(1.83697019872103E-16,-1.,0.));
#472=DIRECTION('',(-9.83397723726397E-17,1.,1.48991629719714E-18));
#473=DIRECTION('',(-0.866025403784439,-8.59096992256837E-17,0.5));
#474=DIRECTION('',(9.83397723726397E-17,-1.,-1.48991629719714E-18));
#475=DIRECTION('',(0.866025403784439,8.59096992256837E-17,-0.5));
#476=DIRECTION('',(0.0174524064372842,-1.54253123618667E-16,-0.999847695156391));
#477=DIRECTION('',(-0.999847695156391,-2.78280001407862E-16,-0.0174524064372842));
#478=DIRECTION('',(-0.999847695156391,-1.8366904192622E-16,-0.0174524064372842));
#479=DIRECTION('',(-0.999847695156391,-1.8366904192622E-16,-0.0174524064372842));
#480=DIRECTION('',(-1.809489800339E-16,1.,-1.57435096890441E-16));
#481=DIRECTION('',(0.866025403784439,7.79888650530202E-17,-0.5));
#482=DIRECTION('',(-0.999847695156391,-1.8366904192622E-16,-0.0174524064372842));
#483=DIRECTION('',(-1.809489800339E-16,1.,-1.57435096890441E-16));
#484=DIRECTION('',(0.866025403784439,7.79888650530201E-17,-0.5));
#485=DIRECTION('',(-0.999847695156391,-1.8366904192622E-16,-0.0174524064372842));
#486=DIRECTION('',(0.0135077517328388,0.633214372181537,-0.773858578492134));
#487=DIRECTION('',(0.345221569167477,0.7233866688889,0.597941297666725));
#488=DIRECTION('',(0.0135077406125722,0.63321515100033,-0.773857941412488));
#489=DIRECTION('',(0.34522194007785,0.723385960850459,0.597941940102335));
#490=DIRECTION('',(-0.0135077618307838,0.633213664960674,0.773859157003001));
#491=DIRECTION('',(0.345221232355277,-0.723387311835377,0.597940714290882));
#492=DIRECTION('',(-0.999847695156391,-1.8366904192622E-16,-0.0174524064372842));
#493=DIRECTION('',(-1.809489800339E-16,1.,-1.57435096890441E-16));
#494=DIRECTION('',(0.866025403784439,7.79888650530202E-17,-0.5));
#495=DIRECTION('',(-0.999847695156391,-1.8366904192622E-16,-0.0174524064372842));
#496=DIRECTION('',(-0.0174524064372842,1.54253123618667E-16,0.999847695156391));
#497=DIRECTION('',(0.999847695156391,2.78280001407862E-16,0.0174524064372842));
#498=DIRECTION('',(-0.999847695156391,-1.8366904192622E-16,-0.0174524064372842));
#499=DIRECTION('',(-1.74989314845111E-16,1.,-4.98864086888295E-16));
#500=DIRECTION('',(0.866025403784439,-9.7886851397447E-17,-0.5));
#501=DIRECTION('',(-0.999847695156391,-1.8366904192622E-16,-0.0174524064372842));
#502=DIRECTION('',(-0.0135077618307838,0.633213664960673,0.773859157003002));
#503=DIRECTION('',(0.345221232355277,-0.723387311835379,0.597940714290881));
#504=CARTESIAN_POINT('',(0.,0.,0.));
#505=CARTESIAN_POINT('',(-0.0467492239415212,-0.001778,0.346871020065824));
#506=CARTESIAN_POINT('',(-0.0434714982170631,-0.001778,0.170703099235601));
#507=CARTESIAN_POINT('',(-0.0420642069359134,-0.001778,0.169890599235601));
#508=CARTESIAN_POINT('',(-0.0414358202798471,-0.001778,0.188004996946101));
#509=CARTESIAN_POINT('',(-0.0414358202798471,-0.001778,0.188004996946101));
#510=CARTESIAN_POINT('',(-0.0465150465712415,-0.001778,0.187916338721399));
#511=CARTESIAN_POINT('',(-0.0492888370872184,-0.001778,0.346826690953474));
#512=CARTESIAN_POINT('',(-0.0461900534791263,-0.001778,0.169297496943854));
#513=CARTESIAN_POINT('',(-0.043772587263798,-0.001778,0.170518317657136));
#514=CARTESIAN_POINT('',(-0.0411209731919875,-0.001778,0.169967419363066));
#515=CARTESIAN_POINT('',(-0.044209610795824,-0.001778,0.346915349178175));
#516=CARTESIAN_POINT('',(-0.0467492239415212,0.001778,0.346871020065824));
#517=CARTESIAN_POINT('',(-0.0434714982170631,0.001778,0.170703099235601));
#518=CARTESIAN_POINT('',(-0.0448787894982129,0.001778,0.171515599235601));
#519=CARTESIAN_POINT('',(-0.0492888370872184,0.001778,0.346826690953474));
#520=CARTESIAN_POINT('',(-0.0465150465712416,0.001778,0.187916338721399));
#521=CARTESIAN_POINT('',(-0.0461900534791263,0.001778,0.169297496943854));
#522=CARTESIAN_POINT('',(-0.041435820279847,0.00177800000000003,0.188004996946101));
#523=CARTESIAN_POINT('',(-0.0414358202798471,0.001778,0.188004996946101));
#524=CARTESIAN_POINT('',(-0.044209610795824,0.001778,0.346915349178175));
#525=CARTESIAN_POINT('',(-0.0411209731919874,0.001778,0.169967419363066));
#526=CARTESIAN_POINT('',(-0.043772587263798,0.001778,0.170518317657136));
#527=CARTESIAN_POINT('',(-0.0467492239415212,-0.001778,0.346871020065824));
#528=CARTESIAN_POINT('',(-0.0492888370872184,-0.001778,0.346826690953474));
#529=CARTESIAN_POINT('',(-0.0489940484900863,-0.001778,0.329938263534587));
#530=CARTESIAN_POINT('',(-0.0465723210253991,-0.001778,0.191197590002508));
#531=CARTESIAN_POINT('',(-0.0414930947340046,-0.001778,0.19128624822721));
#532=CARTESIAN_POINT('',(-0.0414930947340046,-0.001778,0.19128624822721));
#533=CARTESIAN_POINT('',(-0.044209610795824,-0.001778,0.346915349178175));
#534=CARTESIAN_POINT('',(-0.0439148221986918,-0.001778,0.330026921759288));
#535=CARTESIAN_POINT('',(-0.046454435344389,-0.001778,0.329982592646938));
#536=CARTESIAN_POINT('',(-0.0467492239415212,0.001778,0.346871020065824));
#537=CARTESIAN_POINT('',(-0.0414930947340046,0.001778,0.19128624822721));
#538=CARTESIAN_POINT('',(-0.0414930947340046,0.001778,0.19128624822721));
#539=CARTESIAN_POINT('',(-0.0465723210253991,0.001778,0.191197590002508));
#540=CARTESIAN_POINT('',(-0.0492888370872184,0.001778,0.346826690953474));
#541=CARTESIAN_POINT('',(-0.0489940484900863,0.001778,0.329938263534587));
#542=CARTESIAN_POINT('',(-0.046454435344389,0.001778,0.329982592646938));
#543=CARTESIAN_POINT('',(-0.0439148221986918,0.001778,0.330026921759288));
#544=CARTESIAN_POINT('',(-0.044209610795824,0.001778,0.346915349178175));
#545=CARTESIAN_POINT('',(-0.0492888370872184,5.2073886612606E-18,0.346826690953474));
#546=CARTESIAN_POINT('',(-0.0465827478192672,0.00250825,0.19179494062315));
#547=CARTESIAN_POINT('',(-0.0466140282008719,0.004699,0.193586992485074));
#548=CARTESIAN_POINT('',(-0.0466583573132225,0.004699,0.196126605630771));
#549=CARTESIAN_POINT('',(-0.0467026864255733,0.004699,0.198666218776469));
#550=CARTESIAN_POINT('',(-0.0467026864255733,0.005969,0.198666218776469));
#551=CARTESIAN_POINT('',(-0.0467026864255733,0.007239,0.198666218776469));
#552=CARTESIAN_POINT('',(-0.0466583573132225,0.007239,0.196126605630771));
#553=CARTESIAN_POINT('',(-0.0465930206957249,0.007239,0.192383473321243));
#554=CARTESIAN_POINT('',(-0.0465369557616105,0.00331243324177042,0.189171515397001));
#555=CARTESIAN_POINT('',(-0.0461900534791263,-0.023622,0.169297496943854));
#556=CARTESIAN_POINT('',(-0.0465361343952555,-0.00325491073691798,0.189124459350042));
#557=CARTESIAN_POINT('',(-0.0465930205503468,-0.007239,0.192383464992541));
#558=CARTESIAN_POINT('',(-0.0466478534062634,-0.007239,0.195524837204108));
#559=CARTESIAN_POINT('',(-0.0467026862621801,-0.007239,0.198666209415676));
#560=CARTESIAN_POINT('',(-0.0467026862621801,-0.005969,0.198666209415676));
#561=CARTESIAN_POINT('',(-0.0467026862621801,-0.004699,0.198666209415676));
#562=CARTESIAN_POINT('',(-0.0466583571498293,-0.004699,0.196126596269979));
#563=CARTESIAN_POINT('',(-0.0466140280374786,-0.004699,0.193586983124282));
#564=CARTESIAN_POINT('',(-0.0465819264798594,-0.00245072938241792,0.19174788611999));
#565=CARTESIAN_POINT('',(-0.0489940484900863,5.26154044804605E-18,0.329938263534587));
#566=CARTESIAN_POINT('',(-0.044209610795824,5.70674652525159E-18,0.346915349178175));
#567=CARTESIAN_POINT('',(-0.0415027001884649,-0.00245072938241792,0.191836544344692));
#568=CARTESIAN_POINT('',(-0.0415348017460841,-0.004699,0.193675641348984));
#569=CARTESIAN_POINT('',(-0.0415791308584348,-0.004699,0.196215254494681));
#570=CARTESIAN_POINT('',(-0.0416234599707856,-0.004699,0.198754867640378));
#571=CARTESIAN_POINT('',(-0.0416234599707856,-0.005969,0.198754867640378));
#572=CARTESIAN_POINT('',(-0.0416234599707856,-0.007239,0.198754867640378));
#573=CARTESIAN_POINT('',(-0.0415686271148689,-0.007239,0.19561349542881));
#574=CARTESIAN_POINT('',(-0.0415137942589524,-0.007239,0.192472123217242));
#575=CARTESIAN_POINT('',(-0.0414569081038611,-0.00325491073691798,0.189213117574743));
#576=CARTESIAN_POINT('',(-0.0411209731919874,-0.023622,0.169967419363066));
#577=CARTESIAN_POINT('',(-0.041457729470216,0.00331243324177042,0.189260173621703));
#578=CARTESIAN_POINT('',(-0.0415137944043303,0.007239,0.192472131545945));
#579=CARTESIAN_POINT('',(-0.0415791310218281,0.007239,0.196215263855472));
#580=CARTESIAN_POINT('',(-0.0416234601341788,0.007239,0.19875487700117));
#581=CARTESIAN_POINT('',(-0.0416234601341788,0.005969,0.19875487700117));
#582=CARTESIAN_POINT('',(-0.0416234601341788,0.004699,0.19875487700117));
#583=CARTESIAN_POINT('',(-0.0415791310218281,0.004699,0.196215263855472));
#584=CARTESIAN_POINT('',(-0.0415348019094774,0.004699,0.193675650709776));
#585=CARTESIAN_POINT('',(-0.0415035215278728,0.00250825,0.191883598847851));
#586=CARTESIAN_POINT('',(-0.0439148221986918,5.76089831203705E-18,0.330026921759288));
#587=CARTESIAN_POINT('',(-0.057513708891763,-7.79603880641067E-18,0.32978955230911));
#588=CARTESIAN_POINT('',(-0.043772587263798,-0.023622,0.170518317657136));
#589=CARTESIAN_POINT('',(-0.0434714982170631,0.023622,0.170703099235601));
#590=CARTESIAN_POINT('',(-0.0416234601341788,0.005969,0.19875487700117));
#591=CARTESIAN_POINT('',(-0.0416234601341788,0.004699,0.19875487700117));
#592=CARTESIAN_POINT('',(-0.0416234601341788,0.007239,0.19875487700117));
#593=CARTESIAN_POINT('',(-0.0415791310218281,0.007239,0.196215263855472));
#594=CARTESIAN_POINT('',(-0.0415137944043303,0.007239,0.192472131545945));
#595=CARTESIAN_POINT('',(-0.0415791310218281,0.004699,0.196215263855472));
#596=CARTESIAN_POINT('',(-0.0415348019094774,0.004699,0.193675650709776));
#597=CARTESIAN_POINT('',(-0.041457729470216,0.00331243324177042,0.189260173621703));
#598=CARTESIAN_POINT('',(-0.0415035215278728,0.00250825,0.191883598847851));
#599=CARTESIAN_POINT('',(-0.0414569081038611,-0.00325491073691798,0.189213117574743));
#600=CARTESIAN_POINT('',(-0.0415137942589524,-0.007239,0.192472123217242));
#601=CARTESIAN_POINT('',(-0.0415686271148689,-0.007239,0.19561349542881));
#602=CARTESIAN_POINT('',(-0.0416234599707856,-0.007239,0.198754867640378));
#603=CARTESIAN_POINT('',(-0.0416234599707856,-0.005969,0.198754867640378));
#604=CARTESIAN_POINT('',(-0.0416234599707856,-0.004699,0.198754867640378));
#605=CARTESIAN_POINT('',(-0.0415791308584348,-0.004699,0.196215254494681));
#606=CARTESIAN_POINT('',(-0.0415348017460841,-0.004699,0.193675641348984));
#607=CARTESIAN_POINT('',(-0.0415027001884649,-0.00245072938241792,0.191836544344692));
#608=MECHANICAL_DESIGN_GEOMETRIC_PRESENTATION_REPRESENTATION('',(#375),
#609);
#609=(
GEOMETRIC_REPRESENTATION_CONTEXT(3)
GLOBAL_UNCERTAINTY_ASSIGNED_CONTEXT((#610))
GLOBAL_UNIT_ASSIGNED_CONTEXT((#613,#612,#611))
REPRESENTATION_CONTEXT('Landing Strut 1','TOP_LEVEL_ASSEMBLY_PART')
);
#610=UNCERTAINTY_MEASURE_WITH_UNIT(LENGTH_MEASURE(1.E-8),#613,
'DISTANCE_ACCURACY_VALUE','Maximum Tolerance applied to model');
#611=(
NAMED_UNIT(*)
SI_UNIT($,.STERADIAN.)
SOLID_ANGLE_UNIT()
);
#612=(
NAMED_UNIT(*)
PLANE_ANGLE_UNIT()
SI_UNIT($,.RADIAN.)
);
#613=(
LENGTH_UNIT()
NAMED_UNIT(*)
SI_UNIT($,.METRE.)
);
#614=PRODUCT_DEFINITION_SHAPE('','',#615);
#615=PRODUCT_DEFINITION('','',#617,#616);
#616=PRODUCT_DEFINITION_CONTEXT('',#623,'design');
#617=PRODUCT_DEFINITION_FORMATION_WITH_SPECIFIED_SOURCE('','',#619,
 .NOT_KNOWN.);
#618=PRODUCT_RELATED_PRODUCT_CATEGORY('','',(#619));
#619=PRODUCT('Landing Strut 1','Landing Strut 1','Landing Strut 1',(#621));
#620=PRODUCT_CATEGORY('','');
#621=PRODUCT_CONTEXT('',#623,'mechanical');
#622=APPLICATION_PROTOCOL_DEFINITION('international standard',
'ap242_managed_model_based_3d_engineering',2020,#623);
#623=APPLICATION_CONTEXT('managed model based 3d engineering');
ENDSEC;
END-ISO-10303-21;
