ISO-10303-21;
HEADER;
/* Generated by software containing ST-Developer
 * from STEP Tools, Inc. (www.steptools.com) 
 */
/* OPTION: using custom renumber hook */

FILE_DESCRIPTION(
/* description */ ('STEP AP242 Edition 2',
'CAx-IF Rec.Pracs.---Representation and Presentation of Product Manufa
cturing Information (PMI)---4.0---2014-10-13',
'CAx-IF Rec.Pracs.---3D Tessellated Geometry---0.4---2014-09-14','2;1',
'CAx-IF Rec.Pracs.---User Defined Attributes---1.5---2016-08-15'),
/* implementation_level */ '2;1');

FILE_NAME(
/* name */ 'Polairs Rocket (Up) - Landing Leg 1 Up',
/* time_stamp */ '2026-08-25T14:56:05Z',
/* author */ (''),
/* organization */ (''),
/* preprocessor_version */ 'ST-DEVELOPER v20',
/* originating_system */ 'ONSHAPE BY PTC INC, 1.219',
/* authorisation */ '  ');

FILE_SCHEMA (('AP242_MANAGED_MODEL_BASED_3D_ENGINEERING_MIM_LF { 1 0 10303 442 3 1 4 }'));
ENDSEC;

DATA;
#10=SHAPE_REPRESENTATION_RELATIONSHIP('','',#691,#11);
#11=ADVANCED_BREP_SHAPE_REPRESENTATION('',(#689),#1336);
#12=PLANE('',#706);
#13=PLANE('',#708);
#14=PLANE('',#710);
#15=PLANE('',#711);
#16=PLANE('',#713);
#17=PLANE('',#714);
#18=PLANE('',#716);
#19=PLANE('',#718);
#20=PLANE('',#721);
#21=PLANE('',#725);
#22=PLANE('',#726);
#23=PLANE('',#729);
#24=PLANE('',#730);
#25=PLANE('',#731);
#26=PLANE('',#733);
#27=PLANE('',#735);
#28=PLANE('',#740);
#29=PLANE('',#745);
#30=PLANE('',#746);
#31=B_SPLINE_SURFACE_WITH_KNOTS('',3,1,((#997,#998),(#999,#1000),(#1001,
#1002),(#1003,#1004)),.SURF_OF_LINEAR_EXTRUSION.,.F.,.F.,.F.,(4,4),(2,2),
(0.,0.501099204009896),(0.,1.),.PIECEWISE_BEZIER_KNOTS.);
#32=B_SPLINE_SURFACE_WITH_KNOTS('',3,1,((#1026,#1027),(#1028,#1029),(#1030,
#1031),(#1032,#1033)),.SURF_OF_LINEAR_EXTRUSION.,.F.,.F.,.F.,(4,4),(2,2),
(0.,0.501099205177982),(0.,1.),.PIECEWISE_BEZIER_KNOTS.);
#33=B_SPLINE_SURFACE_WITH_KNOTS('',3,1,((#1056,#1057),(#1058,#1059),(#1060,
#1061),(#1062,#1063)),.SURF_OF_LINEAR_EXTRUSION.,.F.,.F.,.F.,(4,4),(2,2),
(0.5,1.),(0.,1.),.PIECEWISE_BEZIER_KNOTS.);
#34=B_SPLINE_SURFACE_WITH_KNOTS('',3,1,((#1085,#1086),(#1087,#1088),(#1089,
#1090),(#1091,#1092)),.SURF_OF_LINEAR_EXTRUSION.,.F.,.F.,.F.,(4,4),(2,2),
(0.,0.5),(0.,1.),.PIECEWISE_BEZIER_KNOTS.);
#35=B_SPLINE_SURFACE_WITH_KNOTS('',3,1,((#1111,#1112),(#1113,#1114),(#1115,
#1116),(#1117,#1118)),.SURF_OF_LINEAR_EXTRUSION.,.F.,.F.,.F.,(4,4),(2,2),
(0.0148721007415455,0.499999973500982),(0.,1.),.PIECEWISE_BEZIER_KNOTS.);
#36=B_SPLINE_SURFACE_WITH_KNOTS('',3,1,((#1146,#1147),(#1148,#1149),(#1150,
#1151),(#1152,#1153)),.SURF_OF_LINEAR_EXTRUSION.,.F.,.F.,.F.,(4,4),(2,2),
(0.499999973500982,0.98512785153702),(0.,1.),.PIECEWISE_BEZIER_KNOTS.);
#37=B_SPLINE_SURFACE_WITH_KNOTS('',3,1,((#1193,#1194),(#1195,#1196),(#1197,
#1198),(#1199,#1200)),.SURF_OF_LINEAR_EXTRUSION.,.F.,.F.,.F.,(4,4),(2,2),
(0.501099204009895,0.943548503630221),(0.,1.),.PIECEWISE_BEZIER_KNOTS.);
#38=B_SPLINE_SURFACE_WITH_KNOTS('',3,1,((#1224,#1225),(#1226,#1227),(#1228,
#1229),(#1230,#1231)),.SURF_OF_LINEAR_EXTRUSION.,.F.,.F.,.F.,(4,4),(2,2),
(0.50109920517796,0.921808163528043),(0.,1.),.PIECEWISE_BEZIER_KNOTS.);
#39=CIRCLE('',#696,0.0500496349948254);
#40=CIRCLE('',#697,0.0500496349948254);
#41=CIRCLE('',#700,0.0036326184813284);
#42=CIRCLE('',#701,0.0036326184813284);
#43=CIRCLE('',#703,0.0036326184813284);
#44=CIRCLE('',#704,0.0036326184813284);
#45=CIRCLE('',#705,0.0036326184813284);
#46=CIRCLE('',#707,0.00155);
#47=CIRCLE('',#709,0.00155);
#48=CIRCLE('',#712,0.0439103581833803);
#49=CIRCLE('',#720,0.00155);
#50=CIRCLE('',#724,0.04);
#51=CIRCLE('',#727,0.00155);
#52=CIRCLE('',#734,0.0439103581833803);
#53=CIRCLE('',#736,0.0439039);
#54=CIRCLE('',#738,0.0439039);
#55=CIRCLE('',#739,0.0439039);
#56=CIRCLE('',#741,0.0439103581833803);
#57=CIRCLE('',#744,0.0439103581833803);
#58=LINE('',#925,#102);
#59=LINE('',#933,#103);
#60=LINE('',#937,#104);
#61=LINE('',#977,#105);
#62=LINE('',#981,#106);
#63=LINE('',#989,#107);
#64=LINE('',#1010,#108);
#65=LINE('',#1017,#109);
#66=LINE('',#1025,#110);
#67=LINE('',#1034,#111);
#68=LINE('',#1041,#112);
#69=LINE('',#1049,#113);
#70=LINE('',#1074,#114);
#71=LINE('',#1119,#115);
#72=LINE('',#1127,#116);
#73=LINE('',#1128,#117);
#74=LINE('',#1154,#118);
#75=LINE('',#1161,#119);
#76=LINE('',#1189,#120);
#77=LINE('',#1192,#121);
#78=LINE('',#1212,#122);
#79=LINE('',#1214,#123);
#80=LINE('',#1216,#124);
#81=LINE('',#1223,#125);
#82=LINE('',#1243,#126);
#83=LINE('',#1250,#127);
#84=LINE('',#1252,#128);
#85=LINE('',#1265,#129);
#86=LINE('',#1270,#130);
#87=LINE('',#1272,#131);
#88=LINE('',#1273,#132);
#89=LINE('',#1275,#133);
#90=LINE('',#1279,#134);
#91=LINE('',#1281,#135);
#92=LINE('',#1283,#136);
#93=LINE('',#1285,#137);
#94=LINE('',#1287,#138);
#95=LINE('',#1288,#139);
#96=LINE('',#1292,#140);
#97=LINE('',#1296,#141);
#98=LINE('',#1298,#142);
#99=LINE('',#1307,#143);
#100=LINE('',#1312,#144);
#101=LINE('',#1317,#145);
#102=VECTOR('',#753,1.);
#103=VECTOR('',#754,1.);
#104=VECTOR('',#757,1.);
#105=VECTOR('',#762,1.);
#106=VECTOR('',#765,1.);
#107=VECTOR('',#766,1.);
#108=VECTOR('',#767,1.);
#109=VECTOR('',#768,1.);
#110=VECTOR('',#769,1.);
#111=VECTOR('',#770,1.);
#112=VECTOR('',#771,1.);
#113=VECTOR('',#772,1.);
#114=VECTOR('',#773,1.);
#115=VECTOR('',#774,1.);
#116=VECTOR('',#775,1.);
#117=VECTOR('',#776,1.);
#118=VECTOR('',#777,1.);
#119=VECTOR('',#778,1.);
#120=VECTOR('',#783,1.);
#121=VECTOR('',#786,1.);
#122=VECTOR('',#787,1.);
#123=VECTOR('',#788,1.);
#124=VECTOR('',#789,1.);
#125=VECTOR('',#790,1.);
#126=VECTOR('',#791,1.);
#127=VECTOR('',#792,1.);
#128=VECTOR('',#795,1.);
#129=VECTOR('',#800,1.);
#130=VECTOR('',#807,1.);
#131=VECTOR('',#808,1.);
#132=VECTOR('',#809,1.);
#133=VECTOR('',#810,1.);
#134=VECTOR('',#815,1.);
#135=VECTOR('',#816,1.);
#136=VECTOR('',#817,1.);
#137=VECTOR('',#820,1.);
#138=VECTOR('',#821,1.);
#139=VECTOR('',#822,1.);
#140=VECTOR('',#829,1.);
#141=VECTOR('',#834,1.);
#142=VECTOR('',#837,1.);
#143=VECTOR('',#850,1.);
#144=VECTOR('',#859,1.);
#145=VECTOR('',#866,1.);
#146=ELLIPSE('',#694,0.118427525560961,0.0500496349948254);
#147=ELLIPSE('',#695,0.0500496658940929,0.0500496349948254);
#148=ELLIPSE('',#698,0.0500496658940929,0.0500496349948254);
#149=ELLIPSE('',#715,0.0709382229387498,0.0439103581833803);
#150=ELLIPSE('',#717,0.0709382229387498,0.0439103581833803);
#151=ELLIPSE('',#722,5.38636785759131,0.0439103581833803);
#152=ELLIPSE('',#732,5.38636785759131,0.0439103581833803);
#153=ORIENTED_EDGE('',*,*,#353,.F.);
#154=ORIENTED_EDGE('',*,*,#354,.T.);
#155=ORIENTED_EDGE('',*,*,#355,.T.);
#156=ORIENTED_EDGE('',*,*,#356,.T.);
#157=ORIENTED_EDGE('',*,*,#357,.T.);
#158=ORIENTED_EDGE('',*,*,#358,.T.);
#159=ORIENTED_EDGE('',*,*,#359,.T.);
#160=ORIENTED_EDGE('',*,*,#360,.F.);
#161=ORIENTED_EDGE('',*,*,#361,.F.);
#162=ORIENTED_EDGE('',*,*,#362,.T.);
#163=ORIENTED_EDGE('',*,*,#363,.F.);
#164=ORIENTED_EDGE('',*,*,#364,.F.);
#165=ORIENTED_EDGE('',*,*,#365,.T.);
#166=ORIENTED_EDGE('',*,*,#366,.T.);
#167=ORIENTED_EDGE('',*,*,#367,.F.);
#168=ORIENTED_EDGE('',*,*,#368,.T.);
#169=ORIENTED_EDGE('',*,*,#369,.T.);
#170=ORIENTED_EDGE('',*,*,#370,.F.);
#171=ORIENTED_EDGE('',*,*,#371,.F.);
#172=ORIENTED_EDGE('',*,*,#372,.F.);
#173=ORIENTED_EDGE('',*,*,#373,.F.);
#174=ORIENTED_EDGE('',*,*,#374,.T.);
#175=ORIENTED_EDGE('',*,*,#375,.T.);
#176=ORIENTED_EDGE('',*,*,#376,.F.);
#177=ORIENTED_EDGE('',*,*,#377,.T.);
#178=ORIENTED_EDGE('',*,*,#355,.F.);
#179=ORIENTED_EDGE('',*,*,#378,.T.);
#180=ORIENTED_EDGE('',*,*,#379,.T.);
#181=ORIENTED_EDGE('',*,*,#353,.T.);
#182=ORIENTED_EDGE('',*,*,#380,.F.);
#183=ORIENTED_EDGE('',*,*,#381,.T.);
#184=ORIENTED_EDGE('',*,*,#382,.F.);
#185=ORIENTED_EDGE('',*,*,#383,.F.);
#186=ORIENTED_EDGE('',*,*,#384,.F.);
#187=ORIENTED_EDGE('',*,*,#385,.F.);
#188=ORIENTED_EDGE('',*,*,#386,.T.);
#189=ORIENTED_EDGE('',*,*,#373,.T.);
#190=ORIENTED_EDGE('',*,*,#387,.F.);
#191=ORIENTED_EDGE('',*,*,#378,.F.);
#192=ORIENTED_EDGE('',*,*,#388,.T.);
#193=ORIENTED_EDGE('',*,*,#385,.T.);
#194=ORIENTED_EDGE('',*,*,#389,.F.);
#195=ORIENTED_EDGE('',*,*,#390,.T.);
#196=ORIENTED_EDGE('',*,*,#391,.T.);
#197=ORIENTED_EDGE('',*,*,#364,.T.);
#198=ORIENTED_EDGE('',*,*,#392,.F.);
#199=ORIENTED_EDGE('',*,*,#393,.T.);
#200=ORIENTED_EDGE('',*,*,#394,.T.);
#201=ORIENTED_EDGE('',*,*,#395,.T.);
#202=ORIENTED_EDGE('',*,*,#396,.F.);
#203=ORIENTED_EDGE('',*,*,#397,.T.);
#204=ORIENTED_EDGE('',*,*,#392,.T.);
#205=ORIENTED_EDGE('',*,*,#363,.T.);
#206=ORIENTED_EDGE('',*,*,#398,.T.);
#207=ORIENTED_EDGE('',*,*,#399,.T.);
#208=ORIENTED_EDGE('',*,*,#400,.F.);
#209=ORIENTED_EDGE('',*,*,#401,.F.);
#210=ORIENTED_EDGE('',*,*,#369,.F.);
#211=ORIENTED_EDGE('',*,*,#402,.T.);
#212=ORIENTED_EDGE('',*,*,#403,.F.);
#213=ORIENTED_EDGE('',*,*,#404,.F.);
#214=ORIENTED_EDGE('',*,*,#405,.F.);
#215=ORIENTED_EDGE('',*,*,#406,.F.);
#216=ORIENTED_EDGE('',*,*,#407,.T.);
#217=ORIENTED_EDGE('',*,*,#356,.F.);
#218=ORIENTED_EDGE('',*,*,#377,.F.);
#219=ORIENTED_EDGE('',*,*,#408,.F.);
#220=ORIENTED_EDGE('',*,*,#409,.T.);
#221=ORIENTED_EDGE('',*,*,#410,.T.);
#222=ORIENTED_EDGE('',*,*,#411,.T.);
#223=ORIENTED_EDGE('',*,*,#412,.F.);
#224=ORIENTED_EDGE('',*,*,#413,.T.);
#225=ORIENTED_EDGE('',*,*,#380,.T.);
#226=ORIENTED_EDGE('',*,*,#371,.T.);
#227=ORIENTED_EDGE('',*,*,#414,.T.);
#228=ORIENTED_EDGE('',*,*,#415,.F.);
#229=ORIENTED_EDGE('',*,*,#416,.T.);
#230=ORIENTED_EDGE('',*,*,#417,.F.);
#231=ORIENTED_EDGE('',*,*,#418,.F.);
#232=ORIENTED_EDGE('',*,*,#419,.T.);
#233=ORIENTED_EDGE('',*,*,#358,.F.);
#234=ORIENTED_EDGE('',*,*,#420,.F.);
#235=ORIENTED_EDGE('',*,*,#421,.T.);
#236=ORIENTED_EDGE('',*,*,#422,.T.);
#237=ORIENTED_EDGE('',*,*,#423,.T.);
#238=ORIENTED_EDGE('',*,*,#398,.F.);
#239=ORIENTED_EDGE('',*,*,#424,.F.);
#240=ORIENTED_EDGE('',*,*,#425,.T.);
#241=ORIENTED_EDGE('',*,*,#366,.F.);
#242=ORIENTED_EDGE('',*,*,#426,.F.);
#243=ORIENTED_EDGE('',*,*,#427,.F.);
#244=ORIENTED_EDGE('',*,*,#428,.T.);
#245=ORIENTED_EDGE('',*,*,#429,.T.);
#246=ORIENTED_EDGE('',*,*,#418,.T.);
#247=ORIENTED_EDGE('',*,*,#417,.T.);
#248=ORIENTED_EDGE('',*,*,#430,.F.);
#249=ORIENTED_EDGE('',*,*,#431,.F.);
#250=ORIENTED_EDGE('',*,*,#361,.T.);
#251=ORIENTED_EDGE('',*,*,#432,.F.);
#252=ORIENTED_EDGE('',*,*,#428,.F.);
#253=ORIENTED_EDGE('',*,*,#433,.F.);
#254=ORIENTED_EDGE('',*,*,#422,.F.);
#255=ORIENTED_EDGE('',*,*,#365,.F.);
#256=ORIENTED_EDGE('',*,*,#391,.F.);
#257=ORIENTED_EDGE('',*,*,#425,.F.);
#258=ORIENTED_EDGE('',*,*,#434,.F.);
#259=ORIENTED_EDGE('',*,*,#367,.T.);
#260=ORIENTED_EDGE('',*,*,#404,.T.);
#261=ORIENTED_EDGE('',*,*,#435,.T.);
#262=ORIENTED_EDGE('',*,*,#436,.T.);
#263=ORIENTED_EDGE('',*,*,#437,.T.);
#264=ORIENTED_EDGE('',*,*,#438,.T.);
#265=ORIENTED_EDGE('',*,*,#410,.F.);
#266=ORIENTED_EDGE('',*,*,#434,.T.);
#267=ORIENTED_EDGE('',*,*,#424,.T.);
#268=ORIENTED_EDGE('',*,*,#402,.F.);
#269=ORIENTED_EDGE('',*,*,#368,.F.);
#270=ORIENTED_EDGE('',*,*,#439,.T.);
#271=ORIENTED_EDGE('',*,*,#421,.F.);
#272=ORIENTED_EDGE('',*,*,#400,.T.);
#273=ORIENTED_EDGE('',*,*,#440,.T.);
#274=ORIENTED_EDGE('',*,*,#437,.F.);
#275=ORIENTED_EDGE('',*,*,#441,.F.);
#276=ORIENTED_EDGE('',*,*,#383,.T.);
#277=ORIENTED_EDGE('',*,*,#442,.T.);
#278=ORIENTED_EDGE('',*,*,#374,.F.);
#279=ORIENTED_EDGE('',*,*,#386,.F.);
#280=ORIENTED_EDGE('',*,*,#388,.F.);
#281=ORIENTED_EDGE('',*,*,#439,.F.);
#282=ORIENTED_EDGE('',*,*,#401,.T.);
#283=ORIENTED_EDGE('',*,*,#441,.T.);
#284=ORIENTED_EDGE('',*,*,#414,.F.);
#285=ORIENTED_EDGE('',*,*,#370,.T.);
#286=ORIENTED_EDGE('',*,*,#405,.T.);
#287=ORIENTED_EDGE('',*,*,#443,.T.);
#288=ORIENTED_EDGE('',*,*,#420,.T.);
#289=ORIENTED_EDGE('',*,*,#357,.F.);
#290=ORIENTED_EDGE('',*,*,#407,.F.);
#291=ORIENTED_EDGE('',*,*,#406,.T.);
#292=ORIENTED_EDGE('',*,*,#444,.F.);
#293=ORIENTED_EDGE('',*,*,#426,.T.);
#294=ORIENTED_EDGE('',*,*,#444,.T.);
#295=ORIENTED_EDGE('',*,*,#429,.F.);
#296=ORIENTED_EDGE('',*,*,#445,.T.);
#297=ORIENTED_EDGE('',*,*,#359,.F.);
#298=ORIENTED_EDGE('',*,*,#419,.F.);
#299=ORIENTED_EDGE('',*,*,#445,.F.);
#300=ORIENTED_EDGE('',*,*,#432,.T.);
#301=ORIENTED_EDGE('',*,*,#360,.T.);
#302=ORIENTED_EDGE('',*,*,#436,.F.);
#303=ORIENTED_EDGE('',*,*,#446,.T.);
#304=ORIENTED_EDGE('',*,*,#415,.T.);
#305=ORIENTED_EDGE('',*,*,#443,.F.);
#306=ORIENTED_EDGE('',*,*,#431,.T.);
#307=ORIENTED_EDGE('',*,*,#447,.T.);
#308=ORIENTED_EDGE('',*,*,#394,.F.);
#309=ORIENTED_EDGE('',*,*,#362,.F.);
#310=ORIENTED_EDGE('',*,*,#442,.F.);
#311=ORIENTED_EDGE('',*,*,#382,.T.);
#312=ORIENTED_EDGE('',*,*,#448,.F.);
#313=ORIENTED_EDGE('',*,*,#375,.F.);
#314=ORIENTED_EDGE('',*,*,#449,.F.);
#315=ORIENTED_EDGE('',*,*,#408,.T.);
#316=ORIENTED_EDGE('',*,*,#376,.T.);
#317=ORIENTED_EDGE('',*,*,#448,.T.);
#318=ORIENTED_EDGE('',*,*,#381,.F.);
#319=ORIENTED_EDGE('',*,*,#413,.F.);
#320=ORIENTED_EDGE('',*,*,#450,.F.);
#321=ORIENTED_EDGE('',*,*,#393,.F.);
#322=ORIENTED_EDGE('',*,*,#397,.F.);
#323=ORIENTED_EDGE('',*,*,#389,.T.);
#324=ORIENTED_EDGE('',*,*,#450,.T.);
#325=ORIENTED_EDGE('',*,*,#412,.T.);
#326=ORIENTED_EDGE('',*,*,#451,.F.);
#327=ORIENTED_EDGE('',*,*,#451,.T.);
#328=ORIENTED_EDGE('',*,*,#411,.F.);
#329=ORIENTED_EDGE('',*,*,#438,.F.);
#330=ORIENTED_EDGE('',*,*,#440,.F.);
#331=ORIENTED_EDGE('',*,*,#399,.F.);
#332=ORIENTED_EDGE('',*,*,#423,.F.);
#333=ORIENTED_EDGE('',*,*,#433,.T.);
#334=ORIENTED_EDGE('',*,*,#390,.F.);
#335=ORIENTED_EDGE('',*,*,#403,.T.);
#336=ORIENTED_EDGE('',*,*,#452,.T.);
#337=ORIENTED_EDGE('',*,*,#395,.F.);
#338=ORIENTED_EDGE('',*,*,#447,.F.);
#339=ORIENTED_EDGE('',*,*,#430,.T.);
#340=ORIENTED_EDGE('',*,*,#427,.T.);
#341=ORIENTED_EDGE('',*,*,#416,.F.);
#342=ORIENTED_EDGE('',*,*,#446,.F.);
#343=ORIENTED_EDGE('',*,*,#435,.F.);
#344=ORIENTED_EDGE('',*,*,#409,.F.);
#345=ORIENTED_EDGE('',*,*,#449,.T.);
#346=ORIENTED_EDGE('',*,*,#396,.T.);
#347=ORIENTED_EDGE('',*,*,#452,.F.);
#348=ORIENTED_EDGE('',*,*,#354,.F.);
#349=ORIENTED_EDGE('',*,*,#379,.F.);
#350=ORIENTED_EDGE('',*,*,#387,.T.);
#351=ORIENTED_EDGE('',*,*,#384,.T.);
#352=ORIENTED_EDGE('',*,*,#372,.T.);
#353=EDGE_CURVE('',#453,#454,#521,.T.);
#354=EDGE_CURVE('',#453,#455,#146,.F.);
#355=EDGE_CURVE('',#455,#456,#522,.T.);
#356=EDGE_CURVE('',#456,#457,#523,.T.);
#357=EDGE_CURVE('',#457,#458,#58,.T.);
#358=EDGE_CURVE('',#458,#459,#524,.T.);
#359=EDGE_CURVE('',#459,#460,#59,.F.);
#360=EDGE_CURVE('',#461,#460,#147,.F.);
#361=EDGE_CURVE('',#462,#461,#60,.T.);
#362=EDGE_CURVE('',#462,#463,#39,.F.);
#363=EDGE_CURVE('',#464,#463,#525,.T.);
#364=EDGE_CURVE('',#465,#464,#526,.T.);
#365=EDGE_CURVE('',#465,#466,#40,.F.);
#366=EDGE_CURVE('',#466,#467,#61,.T.);
#367=EDGE_CURVE('',#468,#467,#148,.F.);
#368=EDGE_CURVE('',#468,#469,#62,.T.);
#369=EDGE_CURVE('',#469,#470,#527,.T.);
#370=EDGE_CURVE('',#471,#470,#63,.T.);
#371=EDGE_CURVE('',#454,#471,#528,.T.);
#372=EDGE_CURVE('',#472,#455,#529,.T.);
#373=EDGE_CURVE('',#473,#472,#64,.T.);
#374=EDGE_CURVE('',#473,#474,#530,.T.);
#375=EDGE_CURVE('',#474,#475,#65,.T.);
#376=EDGE_CURVE('',#476,#475,#531,.T.);
#377=EDGE_CURVE('',#476,#456,#66,.T.);
#378=EDGE_CURVE('',#477,#478,#67,.T.);
#379=EDGE_CURVE('',#478,#453,#532,.T.);
#380=EDGE_CURVE('',#479,#454,#68,.T.);
#381=EDGE_CURVE('',#479,#480,#533,.T.);
#382=EDGE_CURVE('',#481,#480,#69,.T.);
#383=EDGE_CURVE('',#477,#481,#534,.T.);
#384=EDGE_CURVE('',#482,#472,#535,.T.);
#385=EDGE_CURVE('',#483,#482,#70,.T.);
#386=EDGE_CURVE('',#483,#473,#536,.T.);
#387=EDGE_CURVE('',#478,#482,#537,.T.);
#388=EDGE_CURVE('',#477,#483,#538,.T.);
#389=EDGE_CURVE('',#484,#485,#71,.F.);
#390=EDGE_CURVE('',#484,#486,#539,.T.);
#391=EDGE_CURVE('',#486,#465,#72,.T.);
#392=EDGE_CURVE('',#487,#464,#73,.T.);
#393=EDGE_CURVE('',#487,#485,#540,.T.);
#394=EDGE_CURVE('',#463,#488,#74,.F.);
#395=EDGE_CURVE('',#488,#489,#541,.T.);
#396=EDGE_CURVE('',#490,#489,#75,.T.);
#397=EDGE_CURVE('',#490,#487,#542,.T.);
#398=EDGE_CURVE('',#491,#492,#41,.F.);
#399=EDGE_CURVE('',#492,#493,#543,.T.);
#400=EDGE_CURVE('',#494,#493,#76,.T.);
#401=EDGE_CURVE('',#470,#494,#42,.T.);
#402=EDGE_CURVE('',#469,#491,#77,.T.);
#403=EDGE_CURVE('',#495,#496,#544,.T.);
#404=EDGE_CURVE('',#497,#495,#545,.T.);
#405=EDGE_CURVE('',#498,#497,#78,.T.);
#406=EDGE_CURVE('',#499,#498,#79,.T.);
#407=EDGE_CURVE('',#499,#457,#80,.F.);
#408=EDGE_CURVE('',#500,#476,#546,.T.);
#409=EDGE_CURVE('',#500,#496,#81,.T.);
#410=EDGE_CURVE('',#501,#502,#547,.T.);
#411=EDGE_CURVE('',#502,#503,#548,.T.);
#412=EDGE_CURVE('',#504,#503,#82,.T.);
#413=EDGE_CURVE('',#504,#479,#549,.T.);
#414=EDGE_CURVE('',#471,#501,#83,.F.);
#415=EDGE_CURVE('',#505,#506,#84,.T.);
#416=EDGE_CURVE('',#505,#507,#550,.T.);
#417=EDGE_CURVE('',#508,#507,#43,.F.);
#418=EDGE_CURVE('',#509,#508,#44,.F.);
#419=EDGE_CURVE('',#509,#459,#85,.T.);
#420=EDGE_CURVE('',#506,#458,#45,.T.);
#421=EDGE_CURVE('',#510,#510,#46,.F.);
#422=EDGE_CURVE('',#466,#511,#86,.T.);
#423=EDGE_CURVE('',#511,#492,#87,.T.);
#424=EDGE_CURVE('',#512,#491,#88,.T.);
#425=EDGE_CURVE('',#512,#467,#89,.T.);
#426=EDGE_CURVE('',#513,#513,#47,.F.);
#427=EDGE_CURVE('',#514,#507,#90,.T.);
#428=EDGE_CURVE('',#514,#515,#91,.T.);
#429=EDGE_CURVE('',#515,#509,#92,.T.);
#430=EDGE_CURVE('',#516,#514,#93,.T.);
#431=EDGE_CURVE('',#462,#516,#94,.T.);
#432=EDGE_CURVE('',#515,#461,#95,.T.);
#433=EDGE_CURVE('',#511,#486,#48,.F.);
#434=EDGE_CURVE('',#468,#512,#96,.T.);
#435=EDGE_CURVE('',#495,#517,#149,.F.);
#436=EDGE_CURVE('',#517,#497,#97,.T.);
#437=EDGE_CURVE('',#501,#518,#98,.T.);
#438=EDGE_CURVE('',#518,#502,#150,.F.);
#439=EDGE_CURVE('',#519,#519,#49,.T.);
#440=EDGE_CURVE('',#493,#518,#151,.F.);
#441=EDGE_CURVE('',#494,#501,#99,.T.);
#442=EDGE_CURVE('',#481,#474,#50,.F.);
#443=EDGE_CURVE('',#497,#506,#100,.T.);
#444=EDGE_CURVE('',#520,#520,#51,.T.);
#445=EDGE_CURVE('',#515,#460,#101,.T.);
#446=EDGE_CURVE('',#517,#505,#152,.F.);
#447=EDGE_CURVE('',#516,#488,#52,.F.);
#448=EDGE_CURVE('',#475,#480,#53,.T.);
#449=EDGE_CURVE('',#500,#490,#54,.F.);
#450=EDGE_CURVE('',#485,#504,#55,.F.);
#451=EDGE_CURVE('',#484,#503,#56,.T.);
#452=EDGE_CURVE('',#496,#489,#57,.T.);
#453=VERTEX_POINT('',#909);
#454=VERTEX_POINT('',#910);
#455=VERTEX_POINT('',#912);
#456=VERTEX_POINT('',#918);
#457=VERTEX_POINT('',#924);
#458=VERTEX_POINT('',#926);
#459=VERTEX_POINT('',#932);
#460=VERTEX_POINT('',#934);
#461=VERTEX_POINT('',#936);
#462=VERTEX_POINT('',#938);
#463=VERTEX_POINT('',#940);
#464=VERTEX_POINT('',#957);
#465=VERTEX_POINT('',#974);
#466=VERTEX_POINT('',#976);
#467=VERTEX_POINT('',#978);
#468=VERTEX_POINT('',#980);
#469=VERTEX_POINT('',#982);
#470=VERTEX_POINT('',#988);
#471=VERTEX_POINT('',#990);
#472=VERTEX_POINT('',#1009);
#473=VERTEX_POINT('',#1011);
#474=VERTEX_POINT('',#1016);
#475=VERTEX_POINT('',#1018);
#476=VERTEX_POINT('',#1024);
#477=VERTEX_POINT('',#1035);
#478=VERTEX_POINT('',#1036);
#479=VERTEX_POINT('',#1042);
#480=VERTEX_POINT('',#1048);
#481=VERTEX_POINT('',#1050);
#482=VERTEX_POINT('',#1073);
#483=VERTEX_POINT('',#1075);
#484=VERTEX_POINT('',#1120);
#485=VERTEX_POINT('',#1121);
#486=VERTEX_POINT('',#1126);
#487=VERTEX_POINT('',#1129);
#488=VERTEX_POINT('',#1155);
#489=VERTEX_POINT('',#1160);
#490=VERTEX_POINT('',#1162);
#491=VERTEX_POINT('',#1181);
#492=VERTEX_POINT('',#1182);
#493=VERTEX_POINT('',#1188);
#494=VERTEX_POINT('',#1190);
#495=VERTEX_POINT('',#1205);
#496=VERTEX_POINT('',#1206);
#497=VERTEX_POINT('',#1211);
#498=VERTEX_POINT('',#1213);
#499=VERTEX_POINT('',#1215);
#500=VERTEX_POINT('',#1222);
#501=VERTEX_POINT('',#1236);
#502=VERTEX_POINT('',#1237);
#503=VERTEX_POINT('',#1242);
#504=VERTEX_POINT('',#1244);
#505=VERTEX_POINT('',#1253);
#506=VERTEX_POINT('',#1254);
#507=VERTEX_POINT('',#1260);
#508=VERTEX_POINT('',#1262);
#509=VERTEX_POINT('',#1264);
#510=VERTEX_POINT('',#1269);
#511=VERTEX_POINT('',#1271);
#512=VERTEX_POINT('',#1274);
#513=VERTEX_POINT('',#1278);
#514=VERTEX_POINT('',#1280);
#515=VERTEX_POINT('',#1282);
#516=VERTEX_POINT('',#1286);
#517=VERTEX_POINT('',#1295);
#518=VERTEX_POINT('',#1299);
#519=VERTEX_POINT('',#1304);
#520=VERTEX_POINT('',#1314);
#521=B_SPLINE_CURVE_WITH_KNOTS('',3,(#903,#904,#905,#906,#907,#908),
 .UNSPECIFIED.,.F.,.F.,(4,1,1,4),(0.0101187792685654,0.0304054968850855,
0.0506922145016057,0.0912656497346461),.UNSPECIFIED.);
#522=B_SPLINE_CURVE_WITH_KNOTS('',3,(#913,#914,#915,#916,#917),
 .UNSPECIFIED.,.F.,.F.,(4,1,4),(0.0100321118250038,0.0506462638386695,0.0912604158523352),
 .UNSPECIFIED.);
#523=B_SPLINE_CURVE_WITH_KNOTS('',3,(#919,#920,#921,#922,#923),
 .UNSPECIFIED.,.F.,.F.,(4,1,4),(0.,0.0401097251835976,0.0802194503671953),
 .UNSPECIFIED.);
#524=B_SPLINE_CURVE_WITH_KNOTS('',3,(#927,#928,#929,#930,#931),
 .UNSPECIFIED.,.F.,.F.,(4,1,4),(8.58293774722919E-17,0.00159623973377359,
0.0031924794675471),.UNSPECIFIED.);
#525=B_SPLINE_CURVE_WITH_KNOTS('',3,(#941,#942,#943,#944,#945,#946,#947,
#948,#949,#950,#951,#952,#953,#954,#955,#956),.UNSPECIFIED.,.F.,.F.,(4,
1,1,1,1,1,1,1,1,1,1,1,1,4),(0.,0.00206706785632886,0.00413413571265773,
0.00620120356898659,0.00826827142531545,0.0124024071379732,0.0165365428506309,
0.0206706785632886,0.0248048142759464,0.0330730857012618,0.0413413571265773,
0.0496096285518927,0.0578778999772082,0.0661461714025236),.UNSPECIFIED.);
#526=B_SPLINE_CURVE_WITH_KNOTS('',3,(#958,#959,#960,#961,#962,#963,#964,
#965,#966,#967,#968,#969,#970,#971,#972,#973),.UNSPECIFIED.,.F.,.F.,(4,
1,1,1,1,1,1,1,1,1,1,1,1,4),(0.0016946933304983,0.00988129133339199,0.0180678893362857,
0.0262544873391794,0.0344410853420731,0.0426276833449667,0.0467209823464136,
0.0508142813478604,0.0549075803493073,0.0590008793507541,0.0610475288514775,
0.063094178352201,0.0651408278529244,0.0671874773536478),.UNSPECIFIED.);
#527=B_SPLINE_CURVE_WITH_KNOTS('',3,(#983,#984,#985,#986,#987),
 .UNSPECIFIED.,.F.,.F.,(4,1,4),(0.,0.001418013290249,0.002836026580498),
 .UNSPECIFIED.);
#528=B_SPLINE_CURVE_WITH_KNOTS('',3,(#991,#992,#993,#994,#995,#996),
 .UNSPECIFIED.,.F.,.F.,(4,1,1,4),(0.,0.0401193543995865,0.0601790315993797,
0.0802387087991729),.UNSPECIFIED.);
#529=B_SPLINE_CURVE_WITH_KNOTS('',3,(#1005,#1006,#1007,#1008),
 .UNSPECIFIED.,.F.,.F.,(4,4),(0.,0.0110390325510794),.UNSPECIFIED.);
#530=B_SPLINE_CURVE_WITH_KNOTS('',3,(#1012,#1013,#1014,#1015),
 .UNSPECIFIED.,.F.,.F.,(4,4),(0.,0.023869615294524),.UNSPECIFIED.);
#531=B_SPLINE_CURVE_WITH_KNOTS('',3,(#1019,#1020,#1021,#1022,#1023),
 .UNSPECIFIED.,.F.,.F.,(4,1,4),(0.,0.0337027086033619,0.0674054172067239),
 .UNSPECIFIED.);
#532=B_SPLINE_CURVE_WITH_KNOTS('',3,(#1037,#1038,#1039,#1040),
 .UNSPECIFIED.,.F.,.F.,(4,4),(0.,0.0111092990330166),.UNSPECIFIED.);
#533=B_SPLINE_CURVE_WITH_KNOTS('',3,(#1043,#1044,#1045,#1046,#1047),
 .UNSPECIFIED.,.F.,.F.,(4,1,4),(0.,0.0336269937661672,0.0672539875323344),
 .UNSPECIFIED.);
#534=B_SPLINE_CURVE_WITH_KNOTS('',3,(#1051,#1052,#1053,#1054,#1055),
 .UNSPECIFIED.,.F.,.F.,(4,1,4),(0.,0.0120386378209375,0.024077275641875),
 .UNSPECIFIED.);
#535=B_SPLINE_CURVE_WITH_KNOTS('',3,(#1064,#1065,#1066,#1067,#1068,#1069,
#1070,#1071,#1072),.UNSPECIFIED.,.F.,.F.,(4,1,1,1,1,1,4),(0.,0.0010319636005969,
0.0020639272011938,0.00309589080179069,0.00412785440238759,0.00619178160358139,
0.00825570880477518),.UNSPECIFIED.);
#536=B_SPLINE_CURVE_WITH_KNOTS('',3,(#1076,#1077,#1078,#1079,#1080,#1081,
#1082,#1083,#1084),.UNSPECIFIED.,.F.,.F.,(4,1,1,1,1,1,4),(0.,0.000965342913627427,
0.00193068582725485,0.00289602874088228,0.00386137165450971,0.00579205748176456,
0.00772274330901942),.UNSPECIFIED.);
#537=B_SPLINE_CURVE_WITH_KNOTS('',3,(#1093,#1094,#1095,#1096,#1097,#1098,
#1099,#1100,#1101),.UNSPECIFIED.,.F.,.F.,(4,1,1,1,1,1,4),(0.,0.00205751180876249,
0.00411502361752498,0.00514377952190623,0.00617253542628747,0.00720129133066872,
0.00823004723504996),.UNSPECIFIED.);
#538=B_SPLINE_CURVE_WITH_KNOTS('',3,(#1102,#1103,#1104,#1105,#1106,#1107,
#1108,#1109,#1110),.UNSPECIFIED.,.F.,.F.,(4,1,1,1,1,1,4),(0.,0.00192578158310366,
0.00385156316620733,0.00481445395775916,0.00577734474931099,0.00674023554086283,
0.00770312633241466),.UNSPECIFIED.);
#539=B_SPLINE_CURVE_WITH_KNOTS('',3,(#1122,#1123,#1124,#1125),
 .UNSPECIFIED.,.F.,.F.,(4,4),(4.93052235802941E-16,0.00276285393528271),
 .UNSPECIFIED.);
#540=B_SPLINE_CURVE_WITH_KNOTS('',3,(#1130,#1131,#1132,#1133,#1134,#1135,
#1136,#1137,#1138,#1139,#1140,#1141,#1142,#1143,#1144,#1145),
 .UNSPECIFIED.,.F.,.F.,(4,1,1,1,1,1,1,1,1,1,1,1,1,4),(0.,0.001981698092814,
0.003963396185628,0.005945094278442,0.007926792371256,0.011890188556884,
0.015853584742512,0.01981698092814,0.023780377113768,0.031707169485024,
0.03963396185628,0.047560754227536,0.055487546598792,0.063414338970048),
 .UNSPECIFIED.);
#541=B_SPLINE_CURVE_WITH_KNOTS('',3,(#1156,#1157,#1158,#1159),
 .UNSPECIFIED.,.F.,.F.,(4,4),(0.,0.0027640872864064),.UNSPECIFIED.);
#542=B_SPLINE_CURVE_WITH_KNOTS('',3,(#1163,#1164,#1165,#1166,#1167,#1168,
#1169,#1170,#1171,#1172,#1173,#1174,#1175,#1176,#1177,#1178),
 .UNSPECIFIED.,.F.,.F.,(4,1,1,1,1,1,1,1,1,1,1,1,1,4),(0.00334532586104934,
0.0111953946004139,0.0190454633397785,0.0268955320791431,0.0347456008185077,
0.0425956695578723,0.0465207039275546,0.0504457382972369,0.0543707726669192,
0.0582958070366015,0.0602583242214427,0.0622208414062838,0.064183358591125,
0.0661458757759661),.UNSPECIFIED.);
#543=B_SPLINE_CURVE_WITH_KNOTS('',3,(#1183,#1184,#1185,#1186,#1187),
 .UNSPECIFIED.,.F.,.F.,(4,1,4),(0.,0.00120112392836701,0.00240224785673402),
 .UNSPECIFIED.);
#544=B_SPLINE_CURVE_WITH_KNOTS('',3,(#1201,#1202,#1203,#1204),
 .UNSPECIFIED.,.F.,.F.,(4,4),(0.000939668415419571,0.00432715005636707),
 .UNSPECIFIED.);
#545=B_SPLINE_CURVE_WITH_KNOTS('',3,(#1207,#1208,#1209,#1210),
 .UNSPECIFIED.,.F.,.F.,(4,4),(0.,0.00119499163519969),.UNSPECIFIED.);
#546=B_SPLINE_CURVE_WITH_KNOTS('',3,(#1217,#1218,#1219,#1220,#1221),
 .UNSPECIFIED.,.F.,.F.,(4,1,4),(0.00432705522674854,0.0422857682608705,
0.0802444812949924),.UNSPECIFIED.);
#547=B_SPLINE_CURVE_WITH_KNOTS('',3,(#1232,#1233,#1234,#1235),
 .UNSPECIFIED.,.F.,.F.,(4,4),(0.,0.000906295377580551),.UNSPECIFIED.);
#548=B_SPLINE_CURVE_WITH_KNOTS('',3,(#1238,#1239,#1240,#1241),
 .UNSPECIFIED.,.F.,.F.,(4,4),(0.000712346223132883,0.00432459088208846),
 .UNSPECIFIED.);
#549=B_SPLINE_CURVE_WITH_KNOTS('',3,(#1245,#1246,#1247,#1248,#1249),
 .UNSPECIFIED.,.F.,.F.,(4,1,4),(0.00432368941879036,0.0422884910034103,
0.0802532925880303),.UNSPECIFIED.);
#550=B_SPLINE_CURVE_WITH_KNOTS('',3,(#1255,#1256,#1257,#1258,#1259),
 .UNSPECIFIED.,.F.,.F.,(4,1,4),(0.,0.00119961132235904,0.00239922264471808),
 .UNSPECIFIED.);
#551=EDGE_LOOP('',(#153,#154,#155,#156,#157,#158,#159,#160,#161,#162,#163,
#164,#165,#166,#167,#168,#169,#170,#171));
#552=EDGE_LOOP('',(#172,#173,#174,#175,#176,#177,#178));
#553=EDGE_LOOP('',(#179,#180,#181,#182,#183,#184,#185));
#554=EDGE_LOOP('',(#186,#187,#188,#189));
#555=EDGE_LOOP('',(#190,#191,#192,#193));
#556=EDGE_LOOP('',(#194,#195,#196,#197,#198,#199));
#557=EDGE_LOOP('',(#200,#201,#202,#203,#204,#205));
#558=EDGE_LOOP('',(#206,#207,#208,#209,#210,#211));
#559=EDGE_LOOP('',(#212,#213,#214,#215,#216,#217,#218,#219,#220));
#560=EDGE_LOOP('',(#221,#222,#223,#224,#225,#226,#227));
#561=EDGE_LOOP('',(#228,#229,#230,#231,#232,#233,#234));
#562=EDGE_LOOP('',(#235));
#563=EDGE_LOOP('',(#236,#237,#238,#239,#240,#241));
#564=EDGE_LOOP('',(#242));
#565=EDGE_LOOP('',(#243,#244,#245,#246,#247));
#566=EDGE_LOOP('',(#248,#249,#250,#251,#252));
#567=EDGE_LOOP('',(#253,#254,#255,#256));
#568=EDGE_LOOP('',(#257,#258,#259));
#569=EDGE_LOOP('',(#260,#261,#262));
#570=EDGE_LOOP('',(#263,#264,#265));
#571=EDGE_LOOP('',(#266,#267,#268,#269));
#572=EDGE_LOOP('',(#270));
#573=EDGE_LOOP('',(#271));
#574=EDGE_LOOP('',(#272,#273,#274,#275));
#575=EDGE_LOOP('',(#276,#277,#278,#279,#280));
#576=EDGE_LOOP('',(#281));
#577=EDGE_LOOP('',(#282,#283,#284,#285));
#578=EDGE_LOOP('',(#286,#287,#288,#289,#290,#291));
#579=EDGE_LOOP('',(#292));
#580=EDGE_LOOP('',(#293));
#581=EDGE_LOOP('',(#294));
#582=EDGE_LOOP('',(#295,#296,#297,#298));
#583=EDGE_LOOP('',(#299,#300,#301));
#584=EDGE_LOOP('',(#302,#303,#304,#305));
#585=EDGE_LOOP('',(#306,#307,#308,#309));
#586=EDGE_LOOP('',(#310,#311,#312,#313));
#587=EDGE_LOOP('',(#314,#315,#316,#317,#318,#319,#320,#321,#322));
#588=EDGE_LOOP('',(#323,#324,#325,#326));
#589=EDGE_LOOP('',(#327,#328,#329,#330,#331,#332,#333,#334));
#590=EDGE_LOOP('',(#335,#336,#337,#338,#339,#340,#341,#342,#343));
#591=EDGE_LOOP('',(#344,#345,#346,#347));
#592=EDGE_LOOP('',(#348,#349,#350,#351,#352));
#593=FACE_BOUND('',#551,.T.);
#594=FACE_BOUND('',#552,.T.);
#595=FACE_BOUND('',#553,.T.);
#596=FACE_BOUND('',#554,.T.);
#597=FACE_BOUND('',#555,.T.);
#598=FACE_BOUND('',#556,.T.);
#599=FACE_BOUND('',#557,.T.);
#600=FACE_BOUND('',#558,.T.);
#601=FACE_BOUND('',#559,.T.);
#602=FACE_BOUND('',#560,.T.);
#603=FACE_BOUND('',#561,.T.);
#604=FACE_BOUND('',#562,.T.);
#605=FACE_BOUND('',#563,.T.);
#606=FACE_BOUND('',#564,.T.);
#607=FACE_BOUND('',#565,.T.);
#608=FACE_BOUND('',#566,.T.);
#609=FACE_BOUND('',#567,.T.);
#610=FACE_BOUND('',#568,.T.);
#611=FACE_BOUND('',#569,.T.);
#612=FACE_BOUND('',#570,.T.);
#613=FACE_BOUND('',#571,.T.);
#614=FACE_BOUND('',#572,.T.);
#615=FACE_BOUND('',#573,.T.);
#616=FACE_BOUND('',#574,.T.);
#617=FACE_BOUND('',#575,.T.);
#618=FACE_BOUND('',#576,.T.);
#619=FACE_BOUND('',#577,.T.);
#620=FACE_BOUND('',#578,.T.);
#621=FACE_BOUND('',#579,.T.);
#622=FACE_BOUND('',#580,.T.);
#623=FACE_BOUND('',#581,.T.);
#624=FACE_BOUND('',#582,.T.);
#625=FACE_BOUND('',#583,.T.);
#626=FACE_BOUND('',#584,.T.);
#627=FACE_BOUND('',#585,.T.);
#628=FACE_BOUND('',#586,.T.);
#629=FACE_BOUND('',#587,.T.);
#630=FACE_BOUND('',#588,.T.);
#631=FACE_BOUND('',#589,.T.);
#632=FACE_BOUND('',#590,.T.);
#633=FACE_BOUND('',#591,.T.);
#634=FACE_BOUND('',#592,.T.);
#635=CYLINDRICAL_SURFACE('',#693,0.0500496349948254);
#636=CYLINDRICAL_SURFACE('',#699,0.0036326184813284);
#637=CYLINDRICAL_SURFACE('',#702,0.0036326184813284);
#638=CYLINDRICAL_SURFACE('',#719,0.00155);
#639=CYLINDRICAL_SURFACE('',#723,0.04);
#640=CYLINDRICAL_SURFACE('',#728,0.00155);
#641=CYLINDRICAL_SURFACE('',#737,0.0439039);
#642=CYLINDRICAL_SURFACE('',#742,0.0439103581833803);
#643=CYLINDRICAL_SURFACE('',#743,0.0439103581833803);
#644=ADVANCED_FACE('',(#593),#635,.T.);
#645=ADVANCED_FACE('',(#594),#31,.T.);
#646=ADVANCED_FACE('',(#595),#32,.F.);
#647=ADVANCED_FACE('',(#596),#33,.T.);
#648=ADVANCED_FACE('',(#597),#34,.T.);
#649=ADVANCED_FACE('',(#598),#35,.F.);
#650=ADVANCED_FACE('',(#599),#36,.F.);
#651=ADVANCED_FACE('',(#600),#636,.T.);
#652=ADVANCED_FACE('',(#601),#37,.T.);
#653=ADVANCED_FACE('',(#602),#38,.F.);
#654=ADVANCED_FACE('',(#603),#637,.T.);
#655=ADVANCED_FACE('',(#604,#605),#12,.T.);
#656=ADVANCED_FACE('',(#606,#607),#13,.F.);
#657=ADVANCED_FACE('',(#608),#14,.F.);
#658=ADVANCED_FACE('',(#609),#15,.F.);
#659=ADVANCED_FACE('',(#610),#16,.F.);
#660=ADVANCED_FACE('',(#611),#17,.T.);
#661=ADVANCED_FACE('',(#612),#18,.T.);
#662=ADVANCED_FACE('',(#613),#19,.T.);
#663=ADVANCED_FACE('',(#614,#615),#638,.F.);
#664=ADVANCED_FACE('',(#616),#20,.T.);
#665=ADVANCED_FACE('',(#617),#639,.F.);
#666=ADVANCED_FACE('',(#618,#619),#21,.T.);
#667=ADVANCED_FACE('',(#620,#621),#22,.F.);
#668=ADVANCED_FACE('',(#622,#623),#640,.F.);
#669=ADVANCED_FACE('',(#624),#23,.T.);
#670=ADVANCED_FACE('',(#625),#24,.F.);
#671=ADVANCED_FACE('',(#626),#25,.T.);
#672=ADVANCED_FACE('',(#627),#26,.T.);
#673=ADVANCED_FACE('',(#628),#27,.F.);
#674=ADVANCED_FACE('',(#629),#641,.F.);
#675=ADVANCED_FACE('',(#630),#28,.F.);
#676=ADVANCED_FACE('',(#631),#642,.F.);
#677=ADVANCED_FACE('',(#632),#643,.F.);
#678=ADVANCED_FACE('',(#633),#29,.F.);
#679=ADVANCED_FACE('',(#634),#30,.T.);
#680=CLOSED_SHELL('',(#644,#645,#646,#647,#648,#649,#650,#651,#652,#653,
#654,#655,#656,#657,#658,#659,#660,#661,#662,#663,#664,#665,#666,#667,#668,
#669,#670,#671,#672,#673,#674,#675,#676,#677,#678,#679));
#681=STYLED_ITEM('',(#682),#689);
#682=PRESENTATION_STYLE_ASSIGNMENT((#683));
#683=SURFACE_STYLE_USAGE(.BOTH.,#684);
#684=SURFACE_SIDE_STYLE('',(#685));
#685=SURFACE_STYLE_FILL_AREA(#686);
#686=FILL_AREA_STYLE('',(#687));
#687=FILL_AREA_STYLE_COLOUR('',#688);
#688=COLOUR_RGB('',0.917647058823529,0.917647058823529,0.917647058823529);
#689=MANIFOLD_SOLID_BREP('Landing Leg 1 Up',#680);
#690=SHAPE_DEFINITION_REPRESENTATION(#1341,#691);
#691=SHAPE_REPRESENTATION('Landing Leg 1 Up',(#692),#1336);
#692=AXIS2_PLACEMENT_3D('',#901,#747,#748);
#693=AXIS2_PLACEMENT_3D('',#902,#749,#750);
#694=AXIS2_PLACEMENT_3D('',#911,#751,#752);
#695=AXIS2_PLACEMENT_3D('',#935,#755,#756);
#696=AXIS2_PLACEMENT_3D('',#939,#758,#759);
#697=AXIS2_PLACEMENT_3D('',#975,#760,#761);
#698=AXIS2_PLACEMENT_3D('',#979,#763,#764);
#699=AXIS2_PLACEMENT_3D('',#1179,#779,#780);
#700=AXIS2_PLACEMENT_3D('',#1180,#781,#782);
#701=AXIS2_PLACEMENT_3D('',#1191,#784,#785);
#702=AXIS2_PLACEMENT_3D('',#1251,#793,#794);
#703=AXIS2_PLACEMENT_3D('',#1261,#796,#797);
#704=AXIS2_PLACEMENT_3D('',#1263,#798,#799);
#705=AXIS2_PLACEMENT_3D('',#1266,#801,#802);
#706=AXIS2_PLACEMENT_3D('',#1267,#803,#804);
#707=AXIS2_PLACEMENT_3D('',#1268,#805,#806);
#708=AXIS2_PLACEMENT_3D('',#1276,#811,#812);
#709=AXIS2_PLACEMENT_3D('',#1277,#813,#814);
#710=AXIS2_PLACEMENT_3D('',#1284,#818,#819);
#711=AXIS2_PLACEMENT_3D('',#1289,#823,#824);
#712=AXIS2_PLACEMENT_3D('',#1290,#825,#826);
#713=AXIS2_PLACEMENT_3D('',#1291,#827,#828);
#714=AXIS2_PLACEMENT_3D('',#1293,#830,#831);
#715=AXIS2_PLACEMENT_3D('',#1294,#832,#833);
#716=AXIS2_PLACEMENT_3D('',#1297,#835,#836);
#717=AXIS2_PLACEMENT_3D('',#1300,#838,#839);
#718=AXIS2_PLACEMENT_3D('',#1301,#840,#841);
#719=AXIS2_PLACEMENT_3D('',#1302,#842,#843);
#720=AXIS2_PLACEMENT_3D('',#1303,#844,#845);
#721=AXIS2_PLACEMENT_3D('',#1305,#846,#847);
#722=AXIS2_PLACEMENT_3D('',#1306,#848,#849);
#723=AXIS2_PLACEMENT_3D('',#1308,#851,#852);
#724=AXIS2_PLACEMENT_3D('',#1309,#853,#854);
#725=AXIS2_PLACEMENT_3D('',#1310,#855,#856);
#726=AXIS2_PLACEMENT_3D('',#1311,#857,#858);
#727=AXIS2_PLACEMENT_3D('',#1313,#860,#861);
#728=AXIS2_PLACEMENT_3D('',#1315,#862,#863);
#729=AXIS2_PLACEMENT_3D('',#1316,#864,#865);
#730=AXIS2_PLACEMENT_3D('',#1318,#867,#868);
#731=AXIS2_PLACEMENT_3D('',#1319,#869,#870);
#732=AXIS2_PLACEMENT_3D('',#1320,#871,#872);
#733=AXIS2_PLACEMENT_3D('',#1321,#873,#874);
#734=AXIS2_PLACEMENT_3D('',#1322,#875,#876);
#735=AXIS2_PLACEMENT_3D('',#1323,#877,#878);
#736=AXIS2_PLACEMENT_3D('',#1324,#879,#880);
#737=AXIS2_PLACEMENT_3D('',#1325,#881,#882);
#738=AXIS2_PLACEMENT_3D('',#1326,#883,#884);
#739=AXIS2_PLACEMENT_3D('',#1327,#885,#886);
#740=AXIS2_PLACEMENT_3D('',#1328,#887,#888);
#741=AXIS2_PLACEMENT_3D('',#1329,#889,#890);
#742=AXIS2_PLACEMENT_3D('',#1330,#891,#892);
#743=AXIS2_PLACEMENT_3D('',#1331,#893,#894);
#744=AXIS2_PLACEMENT_3D('',#1332,#895,#896);
#745=AXIS2_PLACEMENT_3D('',#1333,#897,#898);
#746=AXIS2_PLACEMENT_3D('',#1334,#899,#900);
#747=DIRECTION('',(0.,0.,1.));
#748=DIRECTION('',(1.,0.,0.));
#749=DIRECTION('',(0.,-0.0610485395348567,-0.998134798421867));
#750=DIRECTION('',(0.,0.998134798421867,-0.0610485395348567));
#751=DIRECTION('',(0.,0.930417567982025,0.366501226724297));
#752=DIRECTION('',(0.,0.366501226724297,-0.930417567982025));
#753=DIRECTION('',(0.,-0.0610485395348567,-0.998134798421867));
#754=DIRECTION('',(0.,-0.0610485395348567,-0.998134798421867));
#755=DIRECTION('',(0.,0.0599393841649381,0.998202018744667));
#756=DIRECTION('',(0.,-0.998202018744667,0.0599393841649381));
#757=DIRECTION('',(0.,-0.0610485395348567,-0.998134798421867));
#758=DIRECTION('',(0.,-0.0610485395348566,-0.998134798421867));
#759=DIRECTION('',(-1.,0.,0.));
#760=DIRECTION('',(0.,-0.0610485395348566,-0.998134798421867));
#761=DIRECTION('',(-1.,0.,0.));
#762=DIRECTION('',(0.,-0.0610485395348567,-0.998134798421867));
#763=DIRECTION('',(0.,0.0599393841649381,0.998202018744667));
#764=DIRECTION('',(0.,-0.998202018744667,0.0599393841649381));
#765=DIRECTION('',(0.,-0.0610485395348567,-0.998134798421867));
#766=DIRECTION('',(0.,-0.0610485395348567,-0.998134798421867));
#767=DIRECTION('',(0.,0.998134798421867,-0.0610485395348567));
#768=DIRECTION('',(0.,0.998134798421867,-0.0610485395348567));
#769=DIRECTION('',(0.,0.998134798421867,-0.0610485395348567));
#770=DIRECTION('',(0.,0.998134798421867,-0.0610485395348567));
#771=DIRECTION('',(0.,0.998134798421867,-0.0610485395348567));
#772=DIRECTION('',(0.,0.998134798421867,-0.0610485395348567));
#773=DIRECTION('',(0.,0.998134798421867,-0.0610485395348567));
#774=DIRECTION('',(0.,0.998134798421867,-0.0610485395348567));
#775=DIRECTION('',(0.,0.998134798421867,-0.0610485395348567));
#776=DIRECTION('',(0.,0.998134798421867,-0.0610485395348567));
#777=DIRECTION('',(0.,0.998134798421867,-0.0610485395348567));
#778=DIRECTION('',(0.,0.998134798421867,-0.0610485395348567));
#779=DIRECTION('',(1.,0.,0.));
#780=DIRECTION('',(0.,-0.0610485395348566,-0.998134798421867));
#781=DIRECTION('',(1.,0.,0.));
#782=DIRECTION('',(0.,-0.0610485395348566,-0.998134798421867));
#783=DIRECTION('',(1.,0.,0.));
#784=DIRECTION('',(-1.,0.,0.));
#785=DIRECTION('',(0.,0.0610485395348566,0.998134798421867));
#786=DIRECTION('',(1.,0.,0.));
#787=DIRECTION('',(0.,-0.998134798421867,0.0610485395348567));
#788=DIRECTION('',(0.,-0.998134798421867,0.0610485395348566));
#789=DIRECTION('',(0.,-0.998134798421867,0.0610485395348567));
#790=DIRECTION('',(0.,0.998134798421867,-0.0610485395348567));
#791=DIRECTION('',(0.,0.998134798421867,-0.0610485395348567));
#792=DIRECTION('',(0.,0.998134798421867,-0.0610485395348567));
#793=DIRECTION('',(1.,0.,0.));
#794=DIRECTION('',(0.,-0.0610485395348566,-0.998134798421867));
#795=DIRECTION('',(1.,0.,0.));
#796=DIRECTION('',(1.,0.,0.));
#797=DIRECTION('',(0.,-0.0610485395348566,-0.998134798421867));
#798=DIRECTION('',(1.,0.,0.));
#799=DIRECTION('',(0.,-0.0610485395348566,-0.998134798421867));
#800=DIRECTION('',(1.,0.,0.));
#801=DIRECTION('',(1.,0.,0.));
#802=DIRECTION('',(0.,-0.0610485395348566,-0.998134798421867));
#803=DIRECTION('',(1.,0.,0.));
#804=DIRECTION('',(0.,-0.0610485395348566,-0.998134798421867));
#805=DIRECTION('',(1.,0.,0.));
#806=DIRECTION('',(0.,-0.0610485395348566,-0.998134798421867));
#807=DIRECTION('',(0.,-0.998134798421867,0.0610485395348566));
#808=DIRECTION('',(0.,-0.0610485395348566,-0.998134798421867));
#809=DIRECTION('',(0.,-0.0610485395348566,-0.998134798421867));
#810=DIRECTION('',(0.,0.998202018744667,-0.0599393841649381));
#811=DIRECTION('',(1.,0.,0.));
#812=DIRECTION('',(0.,-0.0610485395348566,-0.998134798421867));
#813=DIRECTION('',(1.,0.,0.));
#814=DIRECTION('',(0.,-0.0610485395348566,-0.998134798421867));
#815=DIRECTION('',(0.,-0.0610485395348566,-0.998134798421867));
#816=DIRECTION('',(0.,0.998134798421867,-0.0610485395348566));
#817=DIRECTION('',(0.,-0.0610485395348566,-0.998134798421867));
#818=DIRECTION('',(1.,0.,0.));
#819=DIRECTION('',(0.,0.998134798421867,-0.0610485395348566));
#820=DIRECTION('',(0.,-0.0610485395348566,-0.998134798421867));
#821=DIRECTION('',(0.,-0.998134798421867,0.0610485395348566));
#822=DIRECTION('',(0.,0.998202018744667,-0.0599393841649381));
#823=DIRECTION('',(0.,0.0610485395348566,0.998134798421867));
#824=DIRECTION('',(1.,0.,0.));
#825=DIRECTION('',(0.,0.0610485395348566,0.998134798421867));
#826=DIRECTION('',(1.,0.,0.));
#827=DIRECTION('',(0.,0.0599393841649381,0.998202018744667));
#828=DIRECTION('',(0.,-0.998202018744667,0.0599393841649381));
#829=DIRECTION('',(1.,0.,0.));
#830=DIRECTION('',(0.,-0.821719229021725,-0.569892541323312));
#831=DIRECTION('',(0.,0.569892541323312,-0.821719229021725));
#832=DIRECTION('',(0.,-0.821719229021725,-0.569892541323312));
#833=DIRECTION('',(0.,0.569892541323312,-0.821719229021725));
#834=DIRECTION('',(1.,0.,0.));
#835=DIRECTION('',(0.,-0.821719229021725,-0.569892541323312));
#836=DIRECTION('',(0.,0.569892541323312,-0.821719229021725));
#837=DIRECTION('',(1.,0.,0.));
#838=DIRECTION('',(0.,-0.821719229021725,-0.569892541323312));
#839=DIRECTION('',(0.,0.569892541323312,-0.821719229021725));
#840=DIRECTION('',(0.,0.998134798421867,-0.0610485395348566));
#841=DIRECTION('',(0.,0.0610485395348566,0.998134798421867));
#842=DIRECTION('',(1.,0.,0.));
#843=DIRECTION('',(0.,-0.0610485395348566,-0.998134798421867));
#844=DIRECTION('',(-1.,0.,0.));
#845=DIRECTION('',(0.,0.0610485395348566,0.998134798421867));
#846=DIRECTION('',(0.,-0.998599306741768,0.0529095886854141));
#847=DIRECTION('',(0.,-0.0529095886854141,-0.998599306741768));
#848=DIRECTION('',(0.,-0.998599306741768,0.0529095886854141));
#849=DIRECTION('',(0.,-0.0529095886854141,-0.998599306741768));
#850=DIRECTION('',(0.,0.0529095886854141,0.998599306741768));
#851=DIRECTION('',(0.,-0.0610485395348566,-0.998134798421867));
#852=DIRECTION('',(-1.,0.,0.));
#853=DIRECTION('',(0.,0.0610485395348566,0.998134798421867));
#854=DIRECTION('',(1.,0.,0.));
#855=DIRECTION('',(-1.,0.,0.));
#856=DIRECTION('',(0.,0.0610485395348566,0.998134798421867));
#857=DIRECTION('',(-1.,0.,0.));
#858=DIRECTION('',(0.,0.0610485395348566,0.998134798421867));
#859=DIRECTION('',(0.,-0.0529095886854141,-0.998599306741768));
#860=DIRECTION('',(1.,0.,0.));
#861=DIRECTION('',(0.,-0.0610485395348566,-0.998134798421867));
#862=DIRECTION('',(1.,0.,0.));
#863=DIRECTION('',(0.,-0.0610485395348566,-0.998134798421867));
#864=DIRECTION('',(0.,0.998134798421867,-0.0610485395348566));
#865=DIRECTION('',(0.,0.0610485395348566,0.998134798421867));
#866=DIRECTION('',(1.,0.,0.));
#867=DIRECTION('',(0.,0.0599393841649381,0.998202018744667));
#868=DIRECTION('',(0.,-0.998202018744667,0.0599393841649381));
#869=DIRECTION('',(0.,-0.998599306741768,0.0529095886854141));
#870=DIRECTION('',(0.,-0.0529095886854141,-0.998599306741768));
#871=DIRECTION('',(0.,-0.998599306741768,0.0529095886854141));
#872=DIRECTION('',(0.,-0.0529095886854141,-0.998599306741768));
#873=DIRECTION('',(0.,-0.0610485395348566,-0.998134798421867));
#874=DIRECTION('',(-1.,0.,0.));
#875=DIRECTION('',(0.,-0.0610485395348566,-0.998134798421867));
#876=DIRECTION('',(-1.,0.,0.));
#877=DIRECTION('',(0.,0.0610485395348566,0.998134798421867));
#878=DIRECTION('',(1.,0.,0.));
#879=DIRECTION('',(0.,0.0610485395348566,0.998134798421867));
#880=DIRECTION('',(1.,0.,0.));
#881=DIRECTION('',(0.,-0.0610485395348566,-0.998134798421867));
#882=DIRECTION('',(-1.,0.,0.));
#883=DIRECTION('',(0.,-0.0610485395348567,-0.998134798421867));
#884=DIRECTION('',(0.,0.998134798421867,-0.0610485395348567));
#885=DIRECTION('',(0.,-0.0610485395348567,-0.998134798421867));
#886=DIRECTION('',(0.,0.998134798421867,-0.0610485395348567));
#887=DIRECTION('',(0.,0.0610485395348566,0.998134798421867));
#888=DIRECTION('',(1.,0.,0.));
#889=DIRECTION('',(0.,0.0610485395348566,0.998134798421867));
#890=DIRECTION('',(1.,0.,0.));
#891=DIRECTION('',(0.,-0.0610485395348566,-0.998134798421867));
#892=DIRECTION('',(-1.,0.,0.));
#893=DIRECTION('',(0.,-0.0610485395348566,-0.998134798421867));
#894=DIRECTION('',(-1.,0.,0.));
#895=DIRECTION('',(0.,0.0610485395348566,0.998134798421867));
#896=DIRECTION('',(1.,0.,0.));
#897=DIRECTION('',(0.,0.0610485395348566,0.998134798421867));
#898=DIRECTION('',(1.,0.,0.));
#899=DIRECTION('',(0.,0.930417567982025,0.366501226724297));
#900=DIRECTION('',(1.,0.,0.));
#901=CARTESIAN_POINT('',(0.,0.,0.));
#902=CARTESIAN_POINT('',(6.93889390390723E-18,0.0128354915260681,0.363048490036079));
#903=CARTESIAN_POINT('',(-0.00648684067865556,0.0597795111784722,0.317658029678662));
#904=CARTESIAN_POINT('',(-0.00792771509863597,0.0591883408771603,0.31107752817571));
#905=CARTESIAN_POINT('',(-0.0102963659500136,0.0579501229280973,0.297806251401649));
#906=CARTESIAN_POINT('',(-0.0141385744549654,0.0553780437187638,0.271135399901818));
#907=CARTESIAN_POINT('',(-0.0164035068255367,0.0533824836582738,0.251059443327829));
#908=CARTESIAN_POINT('',(-0.0177799999999998,0.0520390189450481,0.237662863758414));
#909=CARTESIAN_POINT('',(-0.00648684067865557,0.0597795111784722,0.317658029678662));
#910=CARTESIAN_POINT('',(-0.0177799999999998,0.0520390189450481,0.237662863758414));
#911=CARTESIAN_POINT('',(6.93889390390723E-18,0.01674177647067,0.426915684328783));
#912=CARTESIAN_POINT('',(0.00627114596153424,0.0598035479058289,0.317597008891339));
#913=CARTESIAN_POINT('',(0.00627114596153427,0.0598035479058289,0.317597008891339));
#914=CARTESIAN_POINT('',(0.00855770157588383,0.0587008938591933,0.304299074545696));
#915=CARTESIAN_POINT('',(0.0130544008083123,0.0561707490210839,0.277714300358807));
#916=CARTESIAN_POINT('',(0.016777758194533,0.0532554958062726,0.251055554900904));
#917=CARTESIAN_POINT('',(0.0182880000000002,0.0518431570584916,0.237674843184578));
#918=CARTESIAN_POINT('',(0.0182880000000002,0.0518431570584916,0.237674843184578));
#919=CARTESIAN_POINT('',(0.0182880000000002,0.0518431570584916,0.237674843184578));
#920=CARTESIAN_POINT('',(0.0197794880584916,0.050448356325765,0.224460289285481));
#921=CARTESIAN_POINT('',(0.0220729086074409,0.0477738272215048,0.197948515880626));
#922=CARTESIAN_POINT('',(0.0235927096081273,0.0453416224548644,0.171359811190564));
#923=CARTESIAN_POINT('',(0.0243132259505545,0.044127220417931,0.158063837991224));
#924=CARTESIAN_POINT('',(0.0243132259505544,0.044127220417931,0.158063837991224));
#925=CARTESIAN_POINT('',(0.0243132259505544,0.0565012709933302,0.360377776552949));
#926=CARTESIAN_POINT('',(0.0243132259505544,0.0435956958805033,0.149373488622281));
#927=CARTESIAN_POINT('',(0.0243132259505544,0.0435956958805033,0.149373488622281));
#928=CARTESIAN_POINT('',(0.023900194278209,0.04384072265491,0.149619547484265));
#929=CARTESIAN_POINT('',(0.0231223902013325,0.0442925364659704,0.150188062105284));
#930=CARTESIAN_POINT('',(0.0226044666140497,0.0446139936089077,0.151167193208154));
#931=CARTESIAN_POINT('',(0.0226044666140497,0.0446474969309762,0.151714967681943));
#932=CARTESIAN_POINT('',(0.0226044666140497,0.0446474969309762,0.151714967681943));
#933=CARTESIAN_POINT('',(0.0226044666140498,0.0574064748032372,0.360322411916164));
#934=CARTESIAN_POINT('',(0.0226044666140498,0.045032424227838,0.15800847335444));
#935=CARTESIAN_POINT('',(6.93889390390723E-18,0.000458411757305545,0.160685024600653));
#936=CARTESIAN_POINT('',(0.0219948833859503,0.0453352650484492,0.157990288566244));
#937=CARTESIAN_POINT('',(0.0219948833859503,0.0577092950431702,0.360303890636856));
#938=CARTESIAN_POINT('',(0.0219948825971937,0.0454355741770008,0.15963035472986));
#939=CARTESIAN_POINT('',(6.93889390390723E-18,0.000561772269114167,0.162374954030659));
#940=CARTESIAN_POINT('',(0.0213219624681583,0.0457579935530719,0.159610634716032));
#941=CARTESIAN_POINT('',(0.000254000000000006,0.0542099134755171,0.219691413440347));
#942=CARTESIAN_POINT('',(0.000954564366801143,0.0542063647277655,0.219691630558785));
#943=CARTESIAN_POINT('',(0.00225442402092729,0.0541316609893983,0.219081893749311));
#944=CARTESIAN_POINT('',(0.00366447550201391,0.0539511844636189,0.217567929032425));
#945=CARTESIAN_POINT('',(0.00482272802494759,0.0537469823279018,0.215863836173218));
#946=CARTESIAN_POINT('',(0.00613326572630193,0.053460337858711,0.213492113723535));
#947=CARTESIAN_POINT('',(0.00752011776850423,0.053081102012199,0.210399477461718));
#948=CARTESIAN_POINT('',(0.00897030771736087,0.0526035896034963,0.206585621140935));
#949=CARTESIAN_POINT('',(0.0102724541285336,0.0521116238836047,0.202737539828805));
#950=CARTESIAN_POINT('',(0.0118763816514132,0.0514369785093178,0.197570256185122));
#951=CARTESIAN_POINT('',(0.0137020533729513,0.0505604302977114,0.191065979403161));
#952=CARTESIAN_POINT('',(0.0157270083245307,0.0494551363080255,0.183221350211803));
#953=CARTESIAN_POINT('',(0.0176471435906543,0.0482928979959099,0.17535507700135));
#954=CARTESIAN_POINT('',(0.0195031237250273,0.0470678164624977,0.167479890930039));
#955=CARTESIAN_POINT('',(0.0207168090321445,0.04620384513701,0.162232527186613));
#956=CARTESIAN_POINT('',(0.0213219624681586,0.0457579935530717,0.159610634716031));
#957=CARTESIAN_POINT('',(0.000254000000000006,0.0542099134755171,0.219691413440347));
#958=CARTESIAN_POINT('',(-0.0208139483671062,0.045993306229876,0.159596242376164));
#959=CARTESIAN_POINT('',(-0.0202082556254373,0.0464313332109807,0.162220976829831));
#960=CARTESIAN_POINT('',(-0.0189935013100588,0.0472799986629498,0.167473928192845));
#961=CARTESIAN_POINT('',(-0.0171362541473408,0.0484824719204593,0.175355708349306));
#962=CARTESIAN_POINT('',(-0.0152137379166043,0.0496228436914525,0.183232528240324));
#963=CARTESIAN_POINT('',(-0.0131854936118811,0.0507060973272349,0.191089573513286));
#964=CARTESIAN_POINT('',(-0.011356472144037,0.0515633043128006,0.197604024316752));
#965=CARTESIAN_POINT('',(-0.00974840406299042,0.0522214596207569,0.202781085600362));
#966=CARTESIAN_POINT('',(-0.0084436767798076,0.0526996275290295,0.206632317626011));
#967=CARTESIAN_POINT('',(-0.00699479870665216,0.0531604290286024,0.210436497631801));
#968=CARTESIAN_POINT('',(-0.00560469988449633,0.0535254708564894,0.21353264232799));
#969=CARTESIAN_POINT('',(-0.00428298095914912,0.0537993329470074,0.215912643099529));
#970=CARTESIAN_POINT('',(-0.00313701877807733,0.0539883728482202,0.217589021425882));
#971=CARTESIAN_POINT('',(-0.00172964613371254,0.0541532460583853,0.219093079759439));
#972=CARTESIAN_POINT('',(-0.000437725693693393,0.0542134174504786,0.219691199061184));
#973=CARTESIAN_POINT('',(0.000254000000000006,0.0542099134755171,0.219691413440347));
#974=CARTESIAN_POINT('',(-0.0208139483671063,0.045993306229876,0.159596242376164));
#975=CARTESIAN_POINT('',(6.93889390390723E-18,0.000561772269114167,0.162374954030659));
#976=CARTESIAN_POINT('',(-0.0219948666140497,0.045435583976317,0.159630354130508));
#977=CARTESIAN_POINT('',(-0.0219948666140497,0.057709303233271,0.360303890135928));
#978=CARTESIAN_POINT('',(-0.0219948666140497,0.0453352732391066,0.157990288074417));
#979=CARTESIAN_POINT('',(6.93889390390723E-18,0.000458411757305545,0.160685024600653));
#980=CARTESIAN_POINT('',(-0.0226044666140498,0.045032424227838,0.15800847335444));
#981=CARTESIAN_POINT('',(-0.0226044666140498,0.0574064748032372,0.360322411916164));
#982=CARTESIAN_POINT('',(-0.0226044666140497,0.0446474969309762,0.151714967681943));
#983=CARTESIAN_POINT('',(-0.0226044666140497,0.0446474969309762,0.151714967681943));
#984=CARTESIAN_POINT('',(-0.0226044666140497,0.0446181695588199,0.151235469385693));
#985=CARTESIAN_POINT('',(-0.023001935349505,0.0443639602174731,0.150357937643889));
#986=CARTESIAN_POINT('',(-0.0236691428343426,0.0439760381002404,0.149799266915061));
#987=CARTESIAN_POINT('',(-0.0240222899010921,0.0437677566076407,0.149558743494476));
#988=CARTESIAN_POINT('',(-0.0240222899010921,0.0437677566076407,0.149558743494476));
#989=CARTESIAN_POINT('',(-0.0240222899010921,0.0566614020183648,0.36036798251989));
#990=CARTESIAN_POINT('',(-0.0240222899010921,0.0442873514429655,0.158054043958164));
#991=CARTESIAN_POINT('',(-0.0177799999999998,0.0520390189450481,0.237662863758414));
#992=CARTESIAN_POINT('',(-0.0191402132468807,0.0507114435283668,0.224424726925427));
#993=CARTESIAN_POINT('',(-0.0209755345664487,0.0486945698492091,0.204550027062294));
#994=CARTESIAN_POINT('',(-0.0229553506404033,0.0460843990765325,0.178004470525379));
#995=CARTESIAN_POINT('',(-0.0237354218595535,0.0448518093873637,0.164711983166644));
#996=CARTESIAN_POINT('',(-0.0240222899010921,0.0442873514429655,0.158054043958164));
#997=CARTESIAN_POINT('',(0.004572,0.0497753245342935,0.328114369286997));
#998=CARTESIAN_POINT('',(0.004572,0.0604704552464391,0.327460227069791));
#999=CARTESIAN_POINT('',(0.00973827499006928,0.0479429510722554,0.298155328004435));
#1000=CARTESIAN_POINT('',(0.00973827499006928,0.058638081784401,0.297501185787228));
#1001=CARTESIAN_POINT('',(0.0149045499801385,0.0461105776102174,0.268196286721872));
#1002=CARTESIAN_POINT('',(0.0149045499801385,0.056805708322363,0.267542144504665));
#1003=CARTESIAN_POINT('',(0.0182880000000002,0.0442721283573395,0.238137907137175));
#1004=CARTESIAN_POINT('',(0.0182880000000002,0.0549672590694851,0.237483764919969));
#1005=CARTESIAN_POINT('',(0.004572,0.0558059427225865,0.327745520877474));
#1006=CARTESIAN_POINT('',(0.00513915701596656,0.057138433541976,0.324362795862839));
#1007=CARTESIAN_POINT('',(0.0057063141243869,0.058470924356088,0.320980070861602));
#1008=CARTESIAN_POINT('',(0.00627114596153427,0.0598035479058289,0.317597008891339));
#1009=CARTESIAN_POINT('',(0.004572,0.0558059427225865,0.327745520877474));
#1010=CARTESIAN_POINT('',(0.004572,0.0253971086817584,0.329605404843132));
#1011=CARTESIAN_POINT('',(0.004572,0.0505081963760196,0.328069544924923));
#1012=CARTESIAN_POINT('',(0.004572,0.0505081963760196,0.328069544924923));
#1013=CARTESIAN_POINT('',(0.00592154061192141,0.0498745610816082,0.320253086877438));
#1014=CARTESIAN_POINT('',(0.00727068084550385,0.0491706819890852,0.312443258732935));
#1015=CARTESIAN_POINT('',(0.00858828935823847,0.0484028629041704,0.304634199531518));
#1016=CARTESIAN_POINT('',(0.00858828935823848,0.0484028629041704,0.304634199531518));
#1017=CARTESIAN_POINT('',(0.00858828935823848,0.0520363994194325,0.304411962917832));
#1018=CARTESIAN_POINT('',(0.00858828935823848,0.0523839901005307,0.304390703361036));
#1019=CARTESIAN_POINT('',(0.0182880000000002,0.0451804965674692,0.238082348957383));
#1020=CARTESIAN_POINT('',(0.0170351067923347,0.0464342661542854,0.249177936085912));
#1021=CARTESIAN_POINT('',(0.014045152033892,0.0490108226729174,0.271299619318741));
#1022=CARTESIAN_POINT('',(0.0104491267121879,0.0513374365221153,0.293359780916452));
#1023=CARTESIAN_POINT('',(0.00858828935823847,0.0523839901005307,0.304390703361036));
#1024=CARTESIAN_POINT('',(0.0182880000000002,0.0451804965674692,0.238082348957383));
#1025=CARTESIAN_POINT('',(0.0182880000000002,0.0198939125048044,0.239628942693311));
#1026=CARTESIAN_POINT('',(-0.004064,0.0496498549422336,0.328122043335997));
#1027=CARTESIAN_POINT('',(-0.004064,0.0604433731455467,0.32746188348204));
#1028=CARTESIAN_POINT('',(-0.00946140863579055,0.0484873750686659,0.30911566540929));
#1029=CARTESIAN_POINT('',(-0.00946140863579055,0.059280893271979,0.308455505555334));
#1030=CARTESIAN_POINT('',(-0.0141419201381062,0.0463174209144352,0.273637228597856));
#1031=CARTESIAN_POINT('',(-0.0141419201381062,0.0571109391177483,0.272977068743899));
#1032=CARTESIAN_POINT('',(-0.0177799999999998,0.0441466587652799,0.238145581186179));
#1033=CARTESIAN_POINT('',(-0.0177799999999998,0.0549401769685929,0.237485421332223));
#1034=CARTESIAN_POINT('',(-0.004064,0.0253971086817584,0.329605404843132));
#1035=CARTESIAN_POINT('',(-0.004064,0.050563255568798,0.328066177360429));
#1036=CARTESIAN_POINT('',(-0.004064,0.0558059427225865,0.327745520877474));
#1037=CARTESIAN_POINT('',(-0.004064,0.0558059427225865,0.327745520877474));
#1038=CARTESIAN_POINT('',(-0.00498589138289491,0.0571211807007864,0.324406594751819));
#1039=CARTESIAN_POINT('',(-0.00576834278995922,0.0584477478930638,0.321038907740687));
#1040=CARTESIAN_POINT('',(-0.00648684067865557,0.0597795111784722,0.317658029678662));
#1041=CARTESIAN_POINT('',(-0.0177799999999998,0.0198939125048047,0.239628942693315));
#1042=CARTESIAN_POINT('',(-0.0177799999999998,0.0454089406323953,0.238068376719818));
#1043=CARTESIAN_POINT('',(-0.0177799999999998,0.0454089406323953,0.238068376719818));
#1044=CARTESIAN_POINT('',(-0.0166402097979844,0.0465929244000183,0.249156893005493));
#1045=CARTESIAN_POINT('',(-0.0141583522961383,0.0489333372295385,0.271316308315532));
#1046=CARTESIAN_POINT('',(-0.0110600617848892,0.0511887294661455,0.293404808341634));
#1047=CARTESIAN_POINT('',(-0.00913888350597233,0.0522707051145126,0.304397632167605));
#1048=CARTESIAN_POINT('',(-0.00913888350597232,0.0522707051145126,0.304397632167605));
#1049=CARTESIAN_POINT('',(-0.00913888350597232,0.0521864139465537,0.304402787636293));
#1050=CARTESIAN_POINT('',(-0.00913888350597232,0.048277976637157,0.30464183790283));
#1051=CARTESIAN_POINT('',(-0.004064,0.050563255568798,0.328066177360429));
#1052=CARTESIAN_POINT('',(-0.00515968384829344,0.0502155782131646,0.32421467916011));
#1053=CARTESIAN_POINT('',(-0.0069698794524583,0.0494707536125987,0.31643170329038));
#1054=CARTESIAN_POINT('',(-0.00845105175481754,0.0486803607108569,0.308576636542651));
#1055=CARTESIAN_POINT('',(-0.00913888350597232,0.048277976637157,0.304641837902829));
#1056=CARTESIAN_POINT('',(0.000254000000000006,0.0508485617949447,0.334156118800387));
#1057=CARTESIAN_POINT('',(0.000254000000000006,0.0562098810976705,0.333828206464369));
#1058=CARTESIAN_POINT('',(0.00169333333333335,0.0508485617949447,0.334156118800387));
#1059=CARTESIAN_POINT('',(0.00169333333333335,0.0562098810976705,0.333828206464369));
#1060=CARTESIAN_POINT('',(0.00313266666666667,0.0506624858464425,0.331113803934798));
#1061=CARTESIAN_POINT('',(0.00313266666666667,0.0560238051491682,0.33078589159878));
#1062=CARTESIAN_POINT('',(0.004572,0.0504764098979402,0.328071489069208));
#1063=CARTESIAN_POINT('',(0.004572,0.055837729200666,0.327743576733189));
#1064=CARTESIAN_POINT('',(0.000254000000000006,0.0533407851789044,0.334003687888224));
#1065=CARTESIAN_POINT('',(0.000604572790738658,0.0533407851789044,0.334003687888224));
#1066=CARTESIAN_POINT('',(0.00122323448051295,0.0534841197711585,0.333639811827222));
#1067=CARTESIAN_POINT('',(0.00185998345908417,0.0537761009756544,0.332898574356855));
#1068=CARTESIAN_POINT('',(0.0024064365377892,0.0540980969709876,0.33208113990089));
#1069=CARTESIAN_POINT('',(0.00304609658552577,0.054541223597515,0.330956197422944));
#1070=CARTESIAN_POINT('',(0.00376268128577288,0.0551128315709529,0.329505086044029));
#1071=CARTESIAN_POINT('',(0.00430215412258432,0.0555748591421061,0.328332160722783));
#1072=CARTESIAN_POINT('',(0.004572,0.0558059427225865,0.327745520877474));
#1073=CARTESIAN_POINT('',(0.000254000000000006,0.0533407851789044,0.334003687888224));
#1074=CARTESIAN_POINT('',(0.000254000000000006,0.0257692605787629,0.335690034574312));
#1075=CARTESIAN_POINT('',(0.000254000000000006,0.0511412031837803,0.334138220086281));
#1076=CARTESIAN_POINT('',(0.000254000000000006,0.0511412031837803,0.334138220086281));
#1077=CARTESIAN_POINT('',(0.000581781514754345,0.0511391256115288,0.334138347156044));
#1078=CARTESIAN_POINT('',(0.00117846614593593,0.0511077368508972,0.333823021531079));
#1079=CARTESIAN_POINT('',(0.00182382403363523,0.0510390368551478,0.333113634056791));
#1080=CARTESIAN_POINT('',(0.00237394573729749,0.0509615985662721,0.332324940371852));
#1081=CARTESIAN_POINT('',(0.00302404441551248,0.0508512596728804,0.331224421275605));
#1082=CARTESIAN_POINT('',(0.00375049415422059,0.050703104567032,0.329800498910748));
#1083=CARTESIAN_POINT('',(0.00429819860564773,0.0505750364146085,0.328646355022741));
#1084=CARTESIAN_POINT('',(0.004572,0.0505081963760196,0.328069544924923));
#1085=CARTESIAN_POINT('',(-0.004064,0.0505317994458753,0.328068101299327));
#1086=CARTESIAN_POINT('',(-0.004064,0.0558373988455093,0.327743596938577));
#1087=CARTESIAN_POINT('',(-0.00262466666666665,0.0507178753943775,0.331110416164917));
#1088=CARTESIAN_POINT('',(-0.00262466666666665,0.0560234747940115,0.330785911804167));
#1089=CARTESIAN_POINT('',(-0.00118533333333332,0.0509039513428798,0.334152731030507));
#1090=CARTESIAN_POINT('',(-0.00118533333333332,0.0562095507425138,0.333828226669756));
#1091=CARTESIAN_POINT('',(0.000254000000000006,0.0509039513428798,0.334152731030506));
#1092=CARTESIAN_POINT('',(0.000254000000000006,0.0562095507425138,0.333828226669756));
#1093=CARTESIAN_POINT('',(-0.004064,0.0558059427225865,0.327745520877474));
#1094=CARTESIAN_POINT('',(-0.00379410972227903,0.0555748211197297,0.328332257248209));
#1095=CARTESIAN_POINT('',(-0.00325454071203881,0.0551127463825111,0.329505302307489));
#1096=CARTESIAN_POINT('',(-0.00253799883037026,0.0545410596883834,0.330956613530515));
#1097=CARTESIAN_POINT('',(-0.00189681467059913,0.0540970853861933,0.3320837079585));
#1098=CARTESIAN_POINT('',(-0.00135136991024533,0.0537756825445111,0.332899636606195));
#1099=CARTESIAN_POINT('',(-0.000710947491827525,0.0534825013734212,0.333643920369232));
#1100=CARTESIAN_POINT('',(-9.45366541491775E-5,0.0533407851789044,0.334003687888224));
#1101=CARTESIAN_POINT('',(0.000254000000000006,0.0533407851789044,0.334003687888224));
#1102=CARTESIAN_POINT('',(-0.004064,0.050563255568798,0.328066177360429));
#1103=CARTESIAN_POINT('',(-0.00379013972328781,0.050626576789146,0.328643327603458));
#1104=CARTESIAN_POINT('',(-0.00324236658459069,0.0507476222208427,0.329798099409748));
#1105=CARTESIAN_POINT('',(-0.00251563888011358,0.0508865142978514,0.331222915520609));
#1106=CARTESIAN_POINT('',(-0.00186557635531037,0.0509885798751886,0.332324063963428));
#1107=CARTESIAN_POINT('',(-0.00131364210684046,0.0510591729662953,0.333114979201092));
#1108=CARTESIAN_POINT('',(-0.000670393317995928,0.0511194899000799,0.333822700694253));
#1109=CARTESIAN_POINT('',(-7.20067461199336E-5,0.0511432695070446,0.334138093704537));
#1110=CARTESIAN_POINT('',(0.000254000000000006,0.0511412031837803,0.334138220086281));
#1111=CARTESIAN_POINT('',(-0.0208139483671063,0.0390853915119607,0.160018748540088));
#1112=CARTESIAN_POINT('',(-0.0208139483671063,0.0505867559797866,0.15931529495393));
#1113=CARTESIAN_POINT('',(-0.0137913001182162,0.0409586978514266,0.190647036452815));
#1114=CARTESIAN_POINT('',(-0.0137913001182162,0.0524600623192524,0.189943582866657));
#1115=CARTESIAN_POINT('',(-0.00676865176768565,0.0427778936625129,0.220390625046803));
#1116=CARTESIAN_POINT('',(-0.00676865176768565,0.0542792581303388,0.219687171460646));
#1117=CARTESIAN_POINT('',(0.000254000000000006,0.0427778937038827,0.220390625723193));
#1118=CARTESIAN_POINT('',(0.000254000000000006,0.0542792581717085,0.219687172137035));
#1119=CARTESIAN_POINT('',(-0.0202011808754791,0.0449956895257094,0.16233678913578));
#1120=CARTESIAN_POINT('',(-0.0202011808754791,0.0396399146444312,0.162664362360456));
#1121=CARTESIAN_POINT('',(-0.0202011808754791,0.0396326544411396,0.162664806413512));
#1122=CARTESIAN_POINT('',(-0.0202011808754791,0.0396399146444313,0.162664362360456));
#1123=CARTESIAN_POINT('',(-0.020405753342785,0.0394796794189646,0.161780829797774));
#1124=CARTESIAN_POINT('',(-0.0206099578729118,0.0393176056816853,0.160897549583702));
#1125=CARTESIAN_POINT('',(-0.0208139483671063,0.0391535814198728,0.160014577866652));
#1126=CARTESIAN_POINT('',(-0.0208139483671054,0.0391535814198732,0.160014577866652));
#1127=CARTESIAN_POINT('',(-0.0208139483671054,0.042727013979117,0.159796017368402));
#1128=CARTESIAN_POINT('',(0.000254000000000006,0.0188069188389706,0.221856753353492));
#1129=CARTESIAN_POINT('',(0.000254000000000006,0.0480755514606685,0.220066607094127));
#1130=CARTESIAN_POINT('',(0.000254000000000006,0.0480755514606685,0.220066607094127));
#1131=CARTESIAN_POINT('',(-0.000417433479604201,0.048079428762682,0.220066369883265));
#1132=CARTESIAN_POINT('',(-0.00167077050631065,0.0480199859686951,0.219504070293539));
#1133=CARTESIAN_POINT('',(-0.00304790494518587,0.0478538265604675,0.218073626898168));
#1134=CARTESIAN_POINT('',(-0.00417979523949464,0.0476597099869087,0.216453522207543));
#1135=CARTESIAN_POINT('',(-0.00546124702676668,0.0473828969095632,0.214192889479293));
#1136=CARTESIAN_POINT('',(-0.00681533595931478,0.0470121960759999,0.211242341507417));
#1137=CARTESIAN_POINT('',(-0.00823099832253068,0.0465409090093111,0.207598001263141));
#1138=CARTESIAN_POINT('',(-0.00950107611226166,0.0460523208896653,0.203918155253243));
#1139=CARTESIAN_POINT('',(-0.011063505774754,0.0453795401992138,0.198976638690418));
#1140=CARTESIAN_POINT('',(-0.0128389741527614,0.0445009765569222,0.192755377353212));
#1141=CARTESIAN_POINT('',(-0.0148037695237631,0.0433875329564018,0.185251431143319));
#1142=CARTESIAN_POINT('',(-0.0166621269373059,0.0422117899766893,0.177726589011125));
#1143=CARTESIAN_POINT('',(-0.0184533175842003,0.0409677556785703,0.170192471604265));
#1144=CARTESIAN_POINT('',(-0.0196204842782574,0.0400875519930104,0.165172786388772));
#1145=CARTESIAN_POINT('',(-0.0202011808754791,0.0396326544411397,0.162664806413512));
#1146=CARTESIAN_POINT('',(0.000254000000000006,0.0424989402772595,0.220407687245665));
#1147=CARTESIAN_POINT('',(0.000254000000000006,0.0542797602341548,0.21968714142958));
#1148=CARTESIAN_POINT('',(0.00727665184406909,0.0424989403186293,0.220407687922054));
#1149=CARTESIAN_POINT('',(0.00727665184406909,0.0542797602755246,0.219687142105969));
#1150=CARTESIAN_POINT('',(0.0142993071052933,0.0406797445507086,0.190664100033818));
#1151=CARTESIAN_POINT('',(0.0142993071052933,0.0524605645076039,0.189943554217733));
#1152=CARTESIAN_POINT('',(0.0213219624681584,0.0388064380853376,0.16003581006256));
#1153=CARTESIAN_POINT('',(0.0213219624681584,0.0505872580422329,0.159315264246475));
#1154=CARTESIAN_POINT('',(0.0213219624681584,0.0425970372376094,0.159803967086466));
#1155=CARTESIAN_POINT('',(0.0213219624681584,0.0388762848439754,0.160031538051792));
#1156=CARTESIAN_POINT('',(0.0213219624681584,0.0388762848439754,0.160031538051792));
#1157=CARTESIAN_POINT('',(0.0211179744519446,0.0390437949439754,0.160914284873467));
#1158=CARTESIAN_POINT('',(0.0209137696557681,0.0392093150722545,0.16179735464312));
#1159=CARTESIAN_POINT('',(0.02070919439616,0.0393729622858049,0.162680689866164));
#1160=CARTESIAN_POINT('',(0.02070919439616,0.0393729622858049,0.162680689866164));
#1161=CARTESIAN_POINT('',(0.02070919439616,0.0448564373461536,0.162345306163944));
#1162=CARTESIAN_POINT('',(0.02070919439616,0.0393656519247269,0.162681136987002));
#1163=CARTESIAN_POINT('',(0.02070919439616,0.0393656519247269,0.162681136987003));
#1164=CARTESIAN_POINT('',(0.0201280949959534,0.0398305532244001,0.165190261672611));
#1165=CARTESIAN_POINT('',(0.018960132722569,0.0407301194416426,0.170212193031075));
#1166=CARTESIAN_POINT('',(0.0171679620797515,0.0420018188625177,0.177748580071794));
#1167=CARTESIAN_POINT('',(0.0153075911132327,0.0432052530124843,0.185279478768644));
#1168=CARTESIAN_POINT('',(0.013338641032385,0.0443474084886447,0.192796186039149));
#1169=CARTESIAN_POINT('',(0.0115591904822212,0.0452503345612527,0.199026586721175));
#1170=CARTESIAN_POINT('',(0.00999368213304426,0.0459433361958001,0.20397222382626));
#1171=CARTESIAN_POINT('',(0.00872038376383391,0.0464479697650941,0.207654993508934));
#1172=CARTESIAN_POINT('',(0.00730677199524762,0.0469347479159396,0.211286836556332));
#1173=CARTESIAN_POINT('',(0.00594619497357377,0.0473225213716709,0.214244263868405));
#1174=CARTESIAN_POINT('',(0.00465837250254891,0.0476142597172819,0.216503419413385));
#1175=CARTESIAN_POINT('',(0.00353254470702518,0.0478191355848213,0.218103717808225));
#1176=CARTESIAN_POINT('',(0.00216057168102626,0.0479992972262147,0.219517486540933));
#1177=CARTESIAN_POINT('',(0.000917129386750923,0.048071722111992,0.220066841371234));
#1178=CARTESIAN_POINT('',(0.000254000000000006,0.0480755514606685,0.220066607094127));
#1179=CARTESIAN_POINT('',(-0.0309063740494456,0.0410216540153719,0.151936733734915));
#1180=CARTESIAN_POINT('',(-0.0219948666140497,0.0410216540153719,0.151936733734915));
#1181=CARTESIAN_POINT('',(-0.0219948666140497,0.0446474969309762,0.151714967681943));
#1182=CARTESIAN_POINT('',(-0.0219948666140497,0.037886664159773,0.150101589153095));
#1183=CARTESIAN_POINT('',(-0.0219948666140497,0.037886664159773,0.150101589153095));
#1184=CARTESIAN_POINT('',(-0.0222746957243861,0.0377397614304996,0.150352544075446));
#1185=CARTESIAN_POINT('',(-0.0227785384163242,0.0374743957547859,0.150936704516446));
#1186=CARTESIAN_POINT('',(-0.0230200562014165,0.0373726342598523,0.151723348654799));
#1187=CARTESIAN_POINT('',(-0.0230254327047436,0.03739412371826,0.152128934084613));
#1188=CARTESIAN_POINT('',(-0.0230254327047437,0.03739412371826,0.152128934084613));
#1189=CARTESIAN_POINT('',(-0.0309063740494456,0.03739412371826,0.152128934084613));
#1190=CARTESIAN_POINT('',(-0.0240222899010921,0.03739412371826,0.152128934084613));
#1191=CARTESIAN_POINT('',(-0.0240222899010921,0.0410216540153719,0.151936733734915));
#1192=CARTESIAN_POINT('',(-0.0309063740494456,0.0446474969309762,0.151714967681943));
#1193=CARTESIAN_POINT('',(0.0182880000000003,0.0418116590920601,0.23828839588424));
#1194=CARTESIAN_POINT('',(0.0182880000000003,0.0519029870662437,0.237671183824541));
#1195=CARTESIAN_POINT('',(0.0212754425654819,0.0401883865388129,0.211748124240328));
#1196=CARTESIAN_POINT('',(0.0212754425654819,0.0502797145129965,0.211130912180629));
#1197=CARTESIAN_POINT('',(0.0228729699245285,0.0385603772143063,0.185130407070903));
#1198=CARTESIAN_POINT('',(0.0228729699245285,0.0486517051884899,0.184513195011204));
#1199=CARTESIAN_POINT('',(0.0243132259505545,0.0369318319158592,0.158503926805011));
#1200=CARTESIAN_POINT('',(0.0243132259505545,0.0470231598900428,0.157886714745312));
#1201=CARTESIAN_POINT('',(0.024262532562303,0.037048906907736,0.159436214662143));
#1202=CARTESIAN_POINT('',(0.0242015337999779,0.0371580585514521,0.160558430626794));
#1203=CARTESIAN_POINT('',(0.0241402286108475,0.0372671930857746,0.161680631532194));
#1204=CARTESIAN_POINT('',(0.0240785241993911,0.0373763657303433,0.16280280694288));
#1205=CARTESIAN_POINT('',(0.0242625325623031,0.037048906907736,0.159436214662143));
#1206=CARTESIAN_POINT('',(0.024078524199391,0.0373763657303433,0.16280280694288));
#1207=CARTESIAN_POINT('',(0.0243132259505545,0.037729310742655,0.15845515091045));
#1208=CARTESIAN_POINT('',(0.0242963504336074,0.0375025089196686,0.15878217294638));
#1209=CARTESIAN_POINT('',(0.0242794532993381,0.0372757076251823,0.159109194220274));
#1210=CARTESIAN_POINT('',(0.024262532562303,0.0370489069077361,0.159436214662144));
#1211=CARTESIAN_POINT('',(0.0243132259505544,0.0377293281452486,0.158455104048015));
#1212=CARTESIAN_POINT('',(0.0243132259505544,0.0410031650345252,0.158254913403968));
#1213=CARTESIAN_POINT('',(0.0243132201732222,0.0378314468205274,0.158448904000315));
#1214=CARTESIAN_POINT('',(0.0243131797318964,0.0427752084771109,0.158146530583999));
#1215=CARTESIAN_POINT('',(0.0243132180067226,0.0403667092085189,0.158293840709896));
#1216=CARTESIAN_POINT('',(0.0243132259505545,0.0477189701336944,0.157844157167682));
#1217=CARTESIAN_POINT('',(0.024078524199391,0.0373686570525324,0.162803278425813));
#1218=CARTESIAN_POINT('',(0.0233870768603269,0.0385921191578815,0.175378146641292));
#1219=CARTESIAN_POINT('',(0.0219037060915019,0.0410557362951974,0.200523579634681));
#1220=CARTESIAN_POINT('',(0.019699049964874,0.0437684595952734,0.225586130020145));
#1221=CARTESIAN_POINT('',(0.0182880000000002,0.0451804965674692,0.238082348957383));
#1222=CARTESIAN_POINT('',(0.024078524199391,0.0373686570525325,0.162803278425813));
#1223=CARTESIAN_POINT('',(0.024078524199391,0.0422374048355231,0.162505493054554));
#1224=CARTESIAN_POINT('',(-0.0177799999999998,0.0419895791336973,0.23827751382832));
#1225=CARTESIAN_POINT('',(-0.0177799999999998,0.0520989559618156,0.237659197853424));
#1226=CARTESIAN_POINT('',(-0.0208344306861314,0.04016706759674,0.208479713595545));
#1227=CARTESIAN_POINT('',(-0.0208344306861314,0.0502764444248583,0.207861397620648));
#1228=CARTESIAN_POINT('',(-0.0231540706289244,0.0383439865191355,0.178672601455498));
#1229=CARTESIAN_POINT('',(-0.0231540706289244,0.0484533633472538,0.178054285480602));
#1230=CARTESIAN_POINT('',(-0.0240222899010921,0.037109751957496,0.158493044749085));
#1231=CARTESIAN_POINT('',(-0.0240222899010921,0.0472191287856143,0.157874728774189));
#1232=CARTESIAN_POINT('',(-0.0240222899010921,0.0377293107426557,0.158455150910449));
#1233=CARTESIAN_POINT('',(-0.0240121063207506,0.0375572435435809,0.158703251939873));
#1234=CARTESIAN_POINT('',(-0.0240017802586869,0.0373851794093085,0.158951348550207));
#1235=CARTESIAN_POINT('',(-0.0239913168186193,0.0372131182300563,0.159199440899742));
#1236=CARTESIAN_POINT('',(-0.0240222899010921,0.0377293198640857,0.158455116909095));
#1237=CARTESIAN_POINT('',(-0.0239913168186193,0.0372131182300562,0.159199440899742));
#1238=CARTESIAN_POINT('',(-0.0239913168186193,0.0372131182300562,0.159199440899742));
#1239=CARTESIAN_POINT('',(-0.0239382587262586,0.0373210718930251,0.160397503042247));
#1240=CARTESIAN_POINT('',(-0.0238816886474782,0.0374311344630527,0.161595208953456));
#1241=CARTESIAN_POINT('',(-0.0238221510409905,0.0375428938177068,0.162792621648728));
#1242=CARTESIAN_POINT('',(-0.0238221510409905,0.0375428938177068,0.162792621648728));
#1243=CARTESIAN_POINT('',(-0.0238221510409905,0.0424243352583834,0.162494059900105));
#1244=CARTESIAN_POINT('',(-0.0238221510409906,0.0375352200137345,0.162793090998686));
#1245=CARTESIAN_POINT('',(-0.0238221510409905,0.0375352200137345,0.162793090998686));
#1246=CARTESIAN_POINT('',(-0.0231963254834795,0.0387100550748974,0.17537960909284));
#1247=CARTESIAN_POINT('',(-0.0213829322159463,0.0413659003988365,0.200487593381988));
#1248=CARTESIAN_POINT('',(-0.019066913631,0.0440721289571038,0.225548561467527));
#1249=CARTESIAN_POINT('',(-0.0177799999999998,0.0454089406323953,0.238068376719818));
#1250=CARTESIAN_POINT('',(-0.0240222899010921,0.0400060113959412,0.158315901933196));
#1251=CARTESIAN_POINT('',(-0.0309063740494456,0.0410216540153719,0.151936733734915));
#1252=CARTESIAN_POINT('',(-0.0309063740494456,0.03739412371826,0.152128934084613));
#1253=CARTESIAN_POINT('',(0.0230254327047436,0.03739412371826,0.152128934084613));
#1254=CARTESIAN_POINT('',(0.0243132259505544,0.03739412371826,0.152128934084613));
#1255=CARTESIAN_POINT('',(0.0230254327047436,0.03739412371826,0.152128934084613));
#1256=CARTESIAN_POINT('',(0.0230200565514475,0.0373726356588983,0.151723375059963));
#1257=CARTESIAN_POINT('',(0.0227781540511581,0.0374745850366855,0.150935996739226));
#1258=CARTESIAN_POINT('',(0.0222747090278821,0.0377397544465234,0.150352556006219));
#1259=CARTESIAN_POINT('',(0.0219948666140498,0.037886664159773,0.150101589153095));
#1260=CARTESIAN_POINT('',(0.0219948666140498,0.037886664159773,0.150101589153095));
#1261=CARTESIAN_POINT('',(0.0219948666140498,0.0410216540153719,0.151936733734915));
#1262=CARTESIAN_POINT('',(0.0219948666140498,0.0446323209079999,0.151537983661099));
#1263=CARTESIAN_POINT('',(0.0219948666140498,0.0410216540153719,0.151936733734915));
#1264=CARTESIAN_POINT('',(0.0219948666140498,0.0446474969309762,0.151714967681943));
#1265=CARTESIAN_POINT('',(-0.0309063740494456,0.0446474969309762,0.151714967681943));
#1266=CARTESIAN_POINT('',(0.0243132259505544,0.0410216540153719,0.151936733734915));
#1267=CARTESIAN_POINT('',(-0.0219948666140497,0.0193513437210537,0.15418888787915));
#1268=CARTESIAN_POINT('',(-0.0219948666140497,0.0410216540153718,0.151936733734915));
#1269=CARTESIAN_POINT('',(-0.0219948666140497,0.0409270287790928,0.150389624797361));
#1270=CARTESIAN_POINT('',(-0.0219948666140497,0.0396579349725791,0.159983730281886));
#1271=CARTESIAN_POINT('',(-0.0219948666140497,0.0384954305771948,0.160054832096645));
#1272=CARTESIAN_POINT('',(-0.0219948666140497,0.0386587068524611,0.162724375599925));
#1273=CARTESIAN_POINT('',(-0.0219948666140497,0.0447039676009691,0.152638254974965));
#1274=CARTESIAN_POINT('',(-0.0219948666140497,0.045032424227838,0.15800847335444));
#1275=CARTESIAN_POINT('',(-0.0219948666140497,0.0453659505546946,0.157988445982966));
#1276=CARTESIAN_POINT('',(0.0219948666140498,0.0193513437210537,0.15418888787915));
#1277=CARTESIAN_POINT('',(0.0219948666140498,0.0410216540153718,0.151936733734915));
#1278=CARTESIAN_POINT('',(0.0219948666140498,0.0409270287790928,0.150389624797361));
#1279=CARTESIAN_POINT('',(0.0219948666140498,0.0386587068524611,0.162724375599925));
#1280=CARTESIAN_POINT('',(0.0219948833859503,0.0383913655517042,0.158414657903645));
#1281=CARTESIAN_POINT('',(0.0219948666140498,0.0196798003479226,0.159559106258625));
#1282=CARTESIAN_POINT('',(0.021994875,0.045032424227838,0.15800847335444));
#1283=CARTESIAN_POINT('',(0.0219948666140498,0.0447039676009691,0.152638254974965));
#1284=CARTESIAN_POINT('',(0.0219948833859503,0.0408704173147908,0.154357251175272));
#1285=CARTESIAN_POINT('',(0.0219948833859503,0.0386586971639399,0.1627243761925));
#1286=CARTESIAN_POINT('',(0.0219948833859503,0.0384954208886735,0.160054832689219));
#1287=CARTESIAN_POINT('',(0.0219948833859503,0.0396579349725791,0.159983730281886));
#1288=CARTESIAN_POINT('',(0.0219948833859503,0.0453659505546946,0.157988445982966));
#1289=CARTESIAN_POINT('',(-0.0213448540851585,0.0151144166470487,0.161484876170387));
#1290=CARTESIAN_POINT('',(6.93889390390723E-18,0.000561772269114167,0.162374954030659));
#1291=CARTESIAN_POINT('',(-0.0309063740494456,0.0453659505546946,0.157988445982966));
#1292=CARTESIAN_POINT('',(-0.0309063740494456,0.045032424227838,0.15800847335444));
#1293=CARTESIAN_POINT('',(0.040112710098908,0.0351743586647389,0.162139096741321));
#1294=CARTESIAN_POINT('',(6.93889390390723E-18,0.00335360123009456,0.20802095405668));
#1295=CARTESIAN_POINT('',(0.0231090510035621,0.0377293296276412,0.15845512368048));
#1296=CARTESIAN_POINT('',(-0.0309063740494455,0.0377293107426551,0.158455150910449));
#1297=CARTESIAN_POINT('',(0.040112710098908,0.0351743586647389,0.162139096741321));
#1298=CARTESIAN_POINT('',(-0.0309063740494455,0.0377293107426551,0.158455150910449));
#1299=CARTESIAN_POINT('',(-0.0231090510035621,0.0377293296276412,0.15845512368048));
#1300=CARTESIAN_POINT('',(6.93889390390723E-18,0.00335360123009456,0.20802095405668));
#1301=CARTESIAN_POINT('',(-0.0309063740494456,0.0448399605794071,0.154861720518191));
#1302=CARTESIAN_POINT('',(-0.0291029740494455,0.0410216540153718,0.151936733734915));
#1303=CARTESIAN_POINT('',(-0.0240222899010921,0.0410216540153718,0.151936733734915));
#1304=CARTESIAN_POINT('',(-0.0240222899010921,0.0411162792516509,0.153483842672469));
#1305=CARTESIAN_POINT('',(-0.0309063740494456,0.0375617172304576,0.155292042497531));
#1306=CARTESIAN_POINT('',(6.93889390390723E-18,0.280060206772343,4.73213396395458));
#1307=CARTESIAN_POINT('',(-0.0240222899010921,0.0371907833497207,0.148291150497534));
#1308=CARTESIAN_POINT('',(6.93889390390723E-18,0.0142465674688768,0.386119377766802));
#1309=CARTESIAN_POINT('',(6.93889390390723E-18,0.00940859280781847,0.307019191261467));
#1310=CARTESIAN_POINT('',(-0.0240222899010921,0.0393857582342671,0.14817485238123));
#1311=CARTESIAN_POINT('',(0.0243132259505544,0.040382911872851,0.148113863852002));
#1312=CARTESIAN_POINT('',(0.0243132259505544,0.0375617172304576,0.155292042497531));
#1313=CARTESIAN_POINT('',(0.0243132259505544,0.0410216540153718,0.151936733734915));
#1314=CARTESIAN_POINT('',(0.0243132259505544,0.0409270287790928,0.150389624797361));
#1315=CARTESIAN_POINT('',(-0.0291029740494455,0.0410216540153718,0.151936733734915));
#1316=CARTESIAN_POINT('',(-0.0309063740494456,0.0448399605794071,0.154861720518191));
#1317=CARTESIAN_POINT('',(-0.0309063740494456,0.045032424227838,0.15800847335444));
#1318=CARTESIAN_POINT('',(-0.0309063740494456,0.0453659505546946,0.157988445982966));
#1319=CARTESIAN_POINT('',(-0.0309063740494456,0.0375617172304576,0.155292042497531));
#1320=CARTESIAN_POINT('',(6.93889390390723E-18,0.280060206772343,4.73213396395458));
#1321=CARTESIAN_POINT('',(0.0219948833859503,0.0396579349725791,0.159983730281886));
#1322=CARTESIAN_POINT('',(6.93889390390723E-18,0.000561772269114167,0.162374954030659));
#1323=CARTESIAN_POINT('',(6.93889390390723E-18,0.00940859280781847,0.307019191261467));
#1324=CARTESIAN_POINT('',(6.93889390390723E-18,0.00940859280781847,0.307019191261467));
#1325=CARTESIAN_POINT('',(6.93889390390723E-18,0.00940859280781847,0.307019191261467));
#1326=CARTESIAN_POINT('',(6.93889390390723E-18,0.000725048544380493,0.16504449753394));
#1327=CARTESIAN_POINT('',(6.93889390390723E-18,0.000725048544380493,0.16504449753394));
#1328=CARTESIAN_POINT('',(6.93889390390723E-18,0.000725048544380469,0.16504449753394));
#1329=CARTESIAN_POINT('',(6.93889390390723E-18,0.000725048544380469,0.16504449753394));
#1330=CARTESIAN_POINT('',(6.93889390390723E-18,0.000725048544380469,0.16504449753394));
#1331=CARTESIAN_POINT('',(6.93889390390723E-18,0.000725048544380469,0.16504449753394));
#1332=CARTESIAN_POINT('',(6.93889390390723E-18,0.000725048544380469,0.16504449753394));
#1333=CARTESIAN_POINT('',(6.93889390390723E-18,0.000725048544380469,0.16504449753394));
#1334=CARTESIAN_POINT('',(-6.93889390390723E-18,0.128806608296087,0.142422534837213));
#1335=MECHANICAL_DESIGN_GEOMETRIC_PRESENTATION_REPRESENTATION('',(#681),
#1336);
#1336=(
GEOMETRIC_REPRESENTATION_CONTEXT(3)
GLOBAL_UNCERTAINTY_ASSIGNED_CONTEXT((#1337))
GLOBAL_UNIT_ASSIGNED_CONTEXT((#1340,#1339,#1338))
REPRESENTATION_CONTEXT('Landing Leg 1 Up','TOP_LEVEL_ASSEMBLY_PART')
);
#1337=UNCERTAINTY_MEASURE_WITH_UNIT(LENGTH_MEASURE(2.74787269993887E-5),
#1340,'DISTANCE_ACCURACY_VALUE','Maximum Tolerance applied to model');
#1338=(
NAMED_UNIT(*)
SI_UNIT($,.STERADIAN.)
SOLID_ANGLE_UNIT()
);
#1339=(
NAMED_UNIT(*)
PLANE_ANGLE_UNIT()
SI_UNIT($,.RADIAN.)
);
#1340=(
LENGTH_UNIT()
NAMED_UNIT(*)
SI_UNIT($,.METRE.)
);
#1341=PRODUCT_DEFINITION_SHAPE('','',#1342);
#1342=PRODUCT_DEFINITION('','',#1344,#1343);
#1343=PRODUCT_DEFINITION_CONTEXT('',#1350,'design');
#1344=PRODUCT_DEFINITION_FORMATION_WITH_SPECIFIED_SOURCE('','',#1346,
 .NOT_KNOWN.);
#1345=PRODUCT_RELATED_PRODUCT_CATEGORY('','',(#1346));
#1346=PRODUCT('Landing Leg 1 Up','Landing Leg 1 Up','Landing Leg 1 Up',
(#1348));
#1347=PRODUCT_CATEGORY('','');
#1348=PRODUCT_CONTEXT('',#1350,'mechanical');
#1349=APPLICATION_PROTOCOL_DEFINITION('international standard',
'ap242_managed_model_based_3d_engineering',2020,#1350);
#1350=APPLICATION_CONTEXT('managed model based 3d engineering');
ENDSEC;
END-ISO-10303-21;
