ISO-10303-21;
HEADER;
/* Generated by software containing ST-Developer
 * from STEP Tools, Inc. (www.steptools.com) 
 */
/* OPTION: using custom renumber hook */

FILE_DESCRIPTION(
/* description */ ('STEP AP242 Edition 2',
'CAx-IF Rec.Pracs.---Representation and Presentation of Product Manufa
cturing Information (PMI)---4.0---2014-10-13',
'CAx-IF Rec.Pracs.---3D Tessellated Geometry---0.4---2014-09-14','2;1',
'CAx-IF Rec.Pracs.---User Defined Attributes---1.5---2016-08-15'),
/* implementation_level */ '2;1');

FILE_NAME(
/* name */ 'Polairs Rocket (Up) - Nose Cone',
/* time_stamp */ '2026-08-25T13:47:56Z',
/* author */ (''),
/* organization */ (''),
/* preprocessor_version */ 'ST-DEVELOPER v20',
/* originating_system */ 'ONSHAPE BY PTC INC, 1.219',
/* authorisation */ '  ');

FILE_SCHEMA (('AP242_MANAGED_MODEL_BASED_3D_ENGINEERING_MIM_LF { 1 0 10303 442 3 1 4 }'));
ENDSEC;

DATA;
#10=SHAPE_REPRESENTATION_RELATIONSHIP('','',#97,#11);
#11=ADVANCED_BREP_SHAPE_REPRESENTATION('',(#95),#163);
#12=VERTEX_LOOP('',#40);
#13=VERTEX_LOOP('',#43);
#14=DEGENERATE_TOROIDAL_SURFACE('',#106,0.227674747474748,0.267274747474747,
 .F.);
#15=DEGENERATE_TOROIDAL_SURFACE('',#111,0.227674747474748,0.266284147474748,
 .F.);
#16=CYLINDRICAL_SURFACE('',#102,0.037338);
#17=CYLINDRICAL_SURFACE('',#107,0.0363474);
#18=ORIENTED_EDGE('',*,*,#30,.F.);
#19=ORIENTED_EDGE('',*,*,#31,.T.);
#20=ORIENTED_EDGE('',*,*,#31,.F.);
#21=ORIENTED_EDGE('',*,*,#32,.T.);
#22=ORIENTED_EDGE('',*,*,#32,.F.);
#23=ORIENTED_EDGE('',*,*,#33,.T.);
#24=ORIENTED_EDGE('',*,*,#33,.F.);
#25=ORIENTED_EDGE('',*,*,#30,.T.);
#26=ORIENTED_EDGE('',*,*,#34,.F.);
#27=ORIENTED_EDGE('',*,*,#34,.T.);
#28=ORIENTED_EDGE('',*,*,#35,.F.);
#29=ORIENTED_EDGE('',*,*,#35,.T.);
#30=EDGE_CURVE('',#36,#36,#44,.F.);
#31=EDGE_CURVE('',#37,#37,#45,.T.);
#32=EDGE_CURVE('',#38,#38,#46,.T.);
#33=EDGE_CURVE('',#39,#39,#47,.T.);
#34=EDGE_CURVE('',#41,#41,#48,.F.);
#35=EDGE_CURVE('',#42,#42,#49,.F.);
#36=VERTEX_POINT('',#143);
#37=VERTEX_POINT('',#145);
#38=VERTEX_POINT('',#148);
#39=VERTEX_POINT('',#151);
#40=VERTEX_POINT('',#153);
#41=VERTEX_POINT('',#156);
#42=VERTEX_POINT('',#159);
#43=VERTEX_POINT('',#161);
#44=CIRCLE('',#100,0.0363474);
#45=CIRCLE('',#101,0.037338);
#46=CIRCLE('',#103,0.037338);
#47=CIRCLE('',#105,0.0396);
#48=CIRCLE('',#108,0.0363474);
#49=CIRCLE('',#110,0.0386075574348973);
#50=EDGE_LOOP('',(#18));
#51=EDGE_LOOP('',(#19));
#52=EDGE_LOOP('',(#20));
#53=EDGE_LOOP('',(#21));
#54=EDGE_LOOP('',(#22));
#55=EDGE_LOOP('',(#23));
#56=EDGE_LOOP('',(#24));
#57=EDGE_LOOP('',(#25));
#58=EDGE_LOOP('',(#26));
#59=EDGE_LOOP('',(#27));
#60=EDGE_LOOP('',(#28));
#61=EDGE_LOOP('',(#29));
#62=FACE_BOUND('',#50,.T.);
#63=FACE_BOUND('',#51,.T.);
#64=FACE_BOUND('',#52,.T.);
#65=FACE_BOUND('',#53,.T.);
#66=FACE_BOUND('',#54,.T.);
#67=FACE_BOUND('',#55,.T.);
#68=FACE_BOUND('',#12,.T.);
#69=FACE_BOUND('',#56,.T.);
#70=FACE_BOUND('',#57,.T.);
#71=FACE_BOUND('',#58,.T.);
#72=FACE_BOUND('',#59,.T.);
#73=FACE_BOUND('',#60,.T.);
#74=FACE_BOUND('',#13,.T.);
#75=FACE_BOUND('',#61,.T.);
#76=PLANE('',#99);
#77=PLANE('',#104);
#78=PLANE('',#109);
#79=ADVANCED_FACE('',(#62,#63),#76,.F.);
#80=ADVANCED_FACE('',(#64,#65),#16,.T.);
#81=ADVANCED_FACE('',(#66,#67),#77,.F.);
#82=ADVANCED_FACE('',(#68,#69),#14,.F.);
#83=ADVANCED_FACE('',(#70,#71),#17,.F.);
#84=ADVANCED_FACE('',(#72,#73),#78,.T.);
#85=ADVANCED_FACE('',(#74,#75),#15,.T.);
#86=CLOSED_SHELL('',(#79,#80,#81,#82,#83,#84,#85));
#87=STYLED_ITEM('',(#88),#95);
#88=PRESENTATION_STYLE_ASSIGNMENT((#89));
#89=SURFACE_STYLE_USAGE(.BOTH.,#90);
#90=SURFACE_SIDE_STYLE('',(#91));
#91=SURFACE_STYLE_FILL_AREA(#92);
#92=FILL_AREA_STYLE('',(#93));
#93=FILL_AREA_STYLE_COLOUR('',#94);
#94=COLOUR_RGB('',0.768627450980392,0.886274509803922,0.952941176470588);
#95=MANIFOLD_SOLID_BREP('Nose Cone',#86);
#96=SHAPE_DEFINITION_REPRESENTATION(#168,#97);
#97=SHAPE_REPRESENTATION('Nose Cone',(#98),#163);
#98=AXIS2_PLACEMENT_3D('',#140,#112,#113);
#99=AXIS2_PLACEMENT_3D('',#141,#114,#115);
#100=AXIS2_PLACEMENT_3D('',#142,#116,#117);
#101=AXIS2_PLACEMENT_3D('',#144,#118,#119);
#102=AXIS2_PLACEMENT_3D('',#146,#120,#121);
#103=AXIS2_PLACEMENT_3D('',#147,#122,#123);
#104=AXIS2_PLACEMENT_3D('',#149,#124,#125);
#105=AXIS2_PLACEMENT_3D('',#150,#126,#127);
#106=AXIS2_PLACEMENT_3D('',#152,#128,#129);
#107=AXIS2_PLACEMENT_3D('',#154,#130,#131);
#108=AXIS2_PLACEMENT_3D('',#155,#132,#133);
#109=AXIS2_PLACEMENT_3D('',#157,#134,#135);
#110=AXIS2_PLACEMENT_3D('',#158,#136,#137);
#111=AXIS2_PLACEMENT_3D('',#160,#138,#139);
#112=DIRECTION('',(0.,0.,1.));
#113=DIRECTION('',(1.,0.,0.));
#114=DIRECTION('',(0.,0.,1.));
#115=DIRECTION('',(1.,0.,0.));
#116=DIRECTION('',(0.,0.,1.));
#117=DIRECTION('',(1.,0.,0.));
#118=DIRECTION('',(0.,0.,-1.));
#119=DIRECTION('',(-1.,0.,0.));
#120=DIRECTION('',(0.,0.,-1.));
#121=DIRECTION('',(-1.,0.,0.));
#122=DIRECTION('',(0.,0.,-1.));
#123=DIRECTION('',(-1.,0.,0.));
#124=DIRECTION('',(0.,0.,1.));
#125=DIRECTION('',(1.,0.,0.));
#126=DIRECTION('',(0.,0.,-1.));
#127=DIRECTION('',(-1.,0.,0.));
#128=DIRECTION('',(0.,0.,-1.));
#129=DIRECTION('',(-1.,0.,0.));
#130=DIRECTION('',(0.,0.,-1.));
#131=DIRECTION('',(-1.,0.,0.));
#132=DIRECTION('',(0.,0.,1.));
#133=DIRECTION('',(1.,0.,0.));
#134=DIRECTION('',(0.,0.,1.));
#135=DIRECTION('',(1.,0.,0.));
#136=DIRECTION('',(0.,0.,1.));
#137=DIRECTION('',(1.,0.,0.));
#138=DIRECTION('',(0.,0.,-1.));
#139=DIRECTION('',(-1.,0.,0.));
#140=CARTESIAN_POINT('',(0.,0.,0.));
#141=CARTESIAN_POINT('',(0.018669,0.,0.5648706));
#142=CARTESIAN_POINT('',(0.,0.,0.5648706));
#143=CARTESIAN_POINT('',(0.0363474,0.,0.5648706));
#144=CARTESIAN_POINT('',(0.,0.,0.5648706));
#145=CARTESIAN_POINT('',(-0.037338,0.,0.5648706));
#146=CARTESIAN_POINT('',(0.,0.,0.6601206));
#147=CARTESIAN_POINT('',(0.,0.,0.5902706));
#148=CARTESIAN_POINT('',(-0.037338,0.,0.5902706));
#149=CARTESIAN_POINT('',(0.038469,0.,0.5902706));
#150=CARTESIAN_POINT('',(0.,0.,0.5902706));
#151=CARTESIAN_POINT('',(-0.0396,0.,0.5902706));
#152=CARTESIAN_POINT('',(0.,0.,0.5902706));
#153=CARTESIAN_POINT('',(0.,0.,0.7302706));
#154=CARTESIAN_POINT('',(0.,0.,0.6601206));
#155=CARTESIAN_POINT('',(0.,0.,0.5912612));
#156=CARTESIAN_POINT('',(0.0363474,0.,0.5912612));
#157=CARTESIAN_POINT('',(0.038469,0.,0.5912612));
#158=CARTESIAN_POINT('',(0.,0.,0.5912612));
#159=CARTESIAN_POINT('',(0.0386075574348973,0.,0.5912612));
#160=CARTESIAN_POINT('',(0.,0.,0.5902706));
#161=CARTESIAN_POINT('',(0.,0.,0.728370044454578));
#162=MECHANICAL_DESIGN_GEOMETRIC_PRESENTATION_REPRESENTATION('',(#87),#163);
#163=(
GEOMETRIC_REPRESENTATION_CONTEXT(3)
GLOBAL_UNCERTAINTY_ASSIGNED_CONTEXT((#164))
GLOBAL_UNIT_ASSIGNED_CONTEXT((#167,#166,#165))
REPRESENTATION_CONTEXT('Nose Cone','TOP_LEVEL_ASSEMBLY_PART')
);
#164=UNCERTAINTY_MEASURE_WITH_UNIT(LENGTH_MEASURE(1.E-8),#167,
'DISTANCE_ACCURACY_VALUE','Maximum Tolerance applied to model');
#165=(
NAMED_UNIT(*)
SI_UNIT($,.STERADIAN.)
SOLID_ANGLE_UNIT()
);
#166=(
NAMED_UNIT(*)
PLANE_ANGLE_UNIT()
SI_UNIT($,.RADIAN.)
);
#167=(
LENGTH_UNIT()
NAMED_UNIT(*)
SI_UNIT($,.METRE.)
);
#168=PRODUCT_DEFINITION_SHAPE('','',#169);
#169=PRODUCT_DEFINITION('','',#171,#170);
#170=PRODUCT_DEFINITION_CONTEXT('',#177,'design');
#171=PRODUCT_DEFINITION_FORMATION_WITH_SPECIFIED_SOURCE('','',#173,
 .NOT_KNOWN.);
#172=PRODUCT_RELATED_PRODUCT_CATEGORY('','',(#173));
#173=PRODUCT('Nose Cone','Nose Cone','Nose Cone',(#175));
#174=PRODUCT_CATEGORY('','');
#175=PRODUCT_CONTEXT('',#177,'mechanical');
#176=APPLICATION_PROTOCOL_DEFINITION('international standard',
'ap242_managed_model_based_3d_engineering',2020,#177);
#177=APPLICATION_CONTEXT('managed model based 3d engineering');
ENDSEC;
END-ISO-10303-21;
